<svg width="20" height="25" viewBox="0 0 20 25" fill="none" xmlns="http://www.w3.org/2000/svg">
<path d="M14.2538 17.9268L11.7671 15.2089V11.9027H7.43131V15.2099L4.97229 17.9268H14.2538Z" fill="#FFDDCE"/>
<path d="M13.8015 17.8779L11.5723 17.2235L9.59999 19.485L6.18984 15.5743L2.56485 16.6383C1.14993 17.0536 0.177979 18.3518 0.177979 19.8264V23.3243C0.177979 23.9736 0.704432 24.5 1.35384 24.5H2.94857L3.23596 24.295H3.38545L3.67284 24.5H15.5255L15.9473 24.199H16.2972V21.2116C16.2973 19.6697 15.281 18.3123 13.8015 17.8779Z" fill="#407093"/>
<path d="M16.6353 16.6381L13.0107 15.574L11.3257 17.5061L13.5774 18.1672C14.9922 18.5826 15.9641 19.8807 15.9641 21.3552V24.1989H16.2498V24.5H17.8461C18.4955 24.5 19.0219 23.9735 19.0219 23.3241V19.8261C19.0219 18.3516 18.0501 17.0534 16.6353 16.6381Z" fill="#365E7D"/>
<path d="M3.67292 24.5V22.5768C3.67292 22.4807 3.63477 22.3886 3.56685 22.3207C3.49893 22.2528 3.40681 22.2146 3.31076 22.2146C3.21472 22.2146 3.1226 22.2528 3.05468 22.3207C2.98676 22.3886 2.94861 22.4807 2.94861 22.5768V24.5H3.67292ZM16.2499 24.5V22.5768C16.2499 22.4807 16.2117 22.3886 16.1438 22.3207C16.0759 22.2528 15.9838 22.2146 15.8877 22.2146C15.7917 22.2146 15.6995 22.2528 15.6316 22.3207C15.5637 22.3886 15.5255 22.4807 15.5255 22.5768V24.5H16.2499Z" fill="#365E7D"/>
<path d="M3.06685 7.58677L2.69555 7.17737H1.90196L1.53066 7.58677L1.04133 10.4588C0.995158 10.7299 1.20399 10.9773 1.479 10.9773H3.11841C3.39342 10.9773 3.60225 10.7299 3.55608 10.4588L3.06685 7.58677Z" fill="#E4F6FF"/>
<path d="M2.66096 6.88862V3.25693C2.66096 3.16088 2.6228 3.06877 2.55489 3.00085C2.48697 2.93293 2.39485 2.89478 2.2988 2.89478C2.20275 2.89478 2.11064 2.93293 2.04272 3.00085C1.9748 3.06877 1.93665 3.16088 1.93665 3.25693V6.88862H2.66096Z" fill="#407093"/>
<path d="M11.6066 2.96594H7.59197C6.14063 2.96594 4.96411 4.14246 4.96411 5.5938V8.12852L5.39869 8.5114H14.2344V5.5938C14.2344 4.1425 13.0579 2.96594 11.6066 2.96594Z" fill="#EFC984"/>
<path d="M11.6065 2.96594H11.1864V8.5114H13.8332L14.2343 8.12852V5.5938C14.2344 4.1425 13.0578 2.96594 11.6065 2.96594Z" fill="#EABC6B"/>
<path d="M9.59998 13.816C9.64367 13.816 9.68712 13.8152 9.73044 13.8138C10.7673 13.1553 11.4715 12.02 11.5343 10.716V6.1261H6.54833V7.33397C6.54833 7.77277 6.19259 8.12846 5.75384 8.12846H4.96484V9.42769C4.96484 9.75966 5.23395 10.0288 5.56597 10.0288C5.67069 10.0288 5.75595 10.1109 5.76252 10.2154C5.88927 12.2251 7.55839 13.816 9.59998 13.816Z" fill="#FFDDCE"/>
<path d="M13.4462 8.12846C13.0074 8.12846 12.6517 7.77277 12.6517 7.33397V6.1261H11.1865V10.5978C11.12 11.9793 10.325 13.1691 9.17749 13.7922C9.31633 13.8074 9.4571 13.816 9.59997 13.816C11.6416 13.816 13.3107 12.2251 13.4374 10.2154C13.4441 10.1109 13.5293 10.0288 13.634 10.0288C13.966 10.0288 14.2351 9.75971 14.2351 9.42769V8.12846H13.4462Z" fill="#FFCBBE"/>
<path d="M11.5343 4.58388V3.68866C11.0932 3.68519 10.7367 3.32688 10.7367 2.88494V1.2761L10.3983 0.733894L9.72359 0.5193C9.6427 0.493567 9.55582 0.493567 9.47492 0.5193L2.13003 2.8555C1.7203 2.98582 1.76164 3.5786 2.18549 3.65078L9.59928 4.91346L11.5343 4.58388Z" fill="#407093"/>
<path d="M11.5343 3.7025L10.466 3.57036C9.89034 3.49915 9.30806 3.49917 8.73237 3.57041L4.66699 4.07347V5.8851C4.66699 5.97937 4.70444 6.06978 4.7711 6.13644C4.83776 6.2031 4.92817 6.24055 5.02244 6.24055H11.5343V3.7025Z" fill="#4A80AA"/>
<path d="M17.0685 2.8555L10.3982 0.733887V2.85953C10.3982 3.29621 10.7506 3.65031 11.1864 3.65373V4.64317L17.013 3.65082C17.4369 3.57854 17.4782 2.98581 17.0685 2.8555Z" fill="#365E7D"/>
<path d="M11.1865 3.65942V6.2405H14.1776C14.2718 6.2405 14.3623 6.20305 14.4289 6.13639C14.4956 6.06973 14.533 5.97932 14.533 5.88505V4.07338L11.1865 3.65942Z" fill="#407093"/>
<path d="M3.06678 7.58674H1.53064V6.57837C1.53064 6.47548 1.57151 6.37681 1.64426 6.30405C1.71702 6.2313 1.81569 6.19043 1.91858 6.19043H2.6788C2.78168 6.19043 2.88036 6.2313 2.95311 6.30405C3.02586 6.37681 3.06673 6.47548 3.06673 6.57837L3.06678 7.58674Z" fill="#FFE07D"/>
<path d="M11.7671 13.9985C11.7671 15.4052 11.3588 16.7816 10.5918 17.9606L9.60002 19.485L15.1331 16.1971L11.7671 13.9985ZM7.43289 13.9985C7.43289 15.4052 7.84122 16.7816 8.60828 17.9606L9.60002 19.485L4.06689 16.1971L7.43289 13.9985Z" fill="#4A80AA"/>
<path d="M11.447 16.1287C10.8779 16.254 10.2543 16.3234 9.60002 16.3234C8.94574 16.3234 8.32211 16.254 7.75305 16.1287C7.95134 16.7762 8.23918 17.3928 8.60824 17.9606L9.60002 19.485L10.5918 17.9606C10.9608 17.3928 11.2487 16.7762 11.447 16.1287Z" fill="#F4FBFF"/>
</svg>
