<svg width="334" height="113" viewBox="0 0 334 113" fill="none" xmlns="http://www.w3.org/2000/svg">
<path d="M97.8558 113C92.6403 113 87.6066 111.464 83.2912 108.555C80.782 109.663 78.1157 110.226 75.3569 110.226C72.1604 110.226 68.9855 109.441 66.1742 107.951C61.8187 109.937 57.1734 110.944 52.3617 110.944C39.1534 110.944 27.1934 103.155 21.8577 91.0945C21.1087 91.1807 20.3658 91.2237 19.6445 91.2237C8.81275 91.2237 0 82.4227 0 71.6054C0 60.7881 8.81275 51.9871 19.6445 51.9871C21.5341 51.9871 23.4112 52.258 25.2237 52.7937C25.9789 48.2777 28.3216 44.1466 31.8325 41.1483C35.3958 38.1069 39.9271 36.4292 44.5939 36.4292C47.7689 36.4292 50.9222 37.208 53.7303 38.6825C58.4588 29.6876 67.6939 24.1066 77.8753 24.1066C87.3816 24.1066 96.3115 29.152 101.231 37.288C104.705 34.5114 109.054 32.9814 113.505 32.9814C117.957 32.9814 121.766 34.3051 125.16 36.8109C128.908 32.1226 134.494 29.4382 140.511 29.4382C144.678 29.4382 148.655 30.725 152.021 33.1569C152.086 33.1569 152.147 33.1569 152.212 33.1569C152.27 33.1569 152.329 33.1569 152.391 33.1569C156.888 24.0973 166.311 18.2515 176.431 18.2515C179.587 18.2515 182.685 18.7995 185.641 19.88C187.959 14.1758 191.862 9.28738 196.935 5.74113C202.308 1.98554 208.624 0 215.205 0C222.541 0 229.44 2.41958 235.149 6.99708C240.487 11.276 244.365 17.2511 246.079 23.8387C247.799 23.1707 249.611 22.8321 251.47 22.8321C256.698 22.8321 261.584 25.6057 264.262 30.0816C268.06 26.5384 273.01 24.5898 278.223 24.5898C286.952 24.5898 294.702 30.0909 297.556 38.2977C301.005 36.6046 304.855 35.7119 308.705 35.7119C322.654 35.7119 334 47.0433 334 60.9728C334 74.9024 322.654 86.2337 308.705 86.2337C308.317 86.2337 307.913 86.2214 307.472 86.1999C306.418 93.4617 300.102 98.9227 292.726 98.9227C290.562 98.9227 288.475 98.4671 286.524 97.5713C281.718 105.747 272.866 110.817 263.384 110.817C254.608 110.817 246.393 106.526 241.375 99.3321C237.371 102.743 232.273 104.621 226.999 104.621C224.406 104.621 221.863 104.174 219.434 103.291C214.41 108.145 207.798 110.817 200.798 110.817C191.072 110.817 182.112 105.553 177.371 97.0695C174.1 98.8765 170.398 99.8339 166.65 99.8339C161.518 99.8339 156.524 98.0423 152.563 94.7823C148.362 100.954 141.414 104.633 133.942 104.633C129.075 104.633 124.266 103.023 120.379 100.092C115.712 108.059 107.1 113 97.8589 113H97.8558ZM83.3528 107.237C83.4792 107.237 83.5994 107.274 83.7042 107.348C87.8747 110.242 92.7697 111.772 97.8558 111.772C106.931 111.772 115.284 106.831 119.652 98.8735C119.741 98.7134 119.892 98.5995 120.074 98.5656C120.114 98.5564 120.154 98.5533 120.194 98.5533C120.336 98.5533 120.472 98.6025 120.583 98.6887C124.353 101.727 129.096 103.402 133.942 103.402C141.26 103.402 147.977 99.7107 151.91 93.5325C152.005 93.3817 152.166 93.2801 152.341 93.2524C152.369 93.2493 152.4 93.2462 152.428 93.2462C152.579 93.2462 152.724 93.3016 152.835 93.4001C156.654 96.7555 161.561 98.6026 166.644 98.6026C170.392 98.6026 174.076 97.5959 177.291 95.6935C177.386 95.6381 177.494 95.6073 177.605 95.6073C177.661 95.6073 177.719 95.6166 177.772 95.632C177.932 95.6781 178.071 95.7889 178.151 95.9367C182.599 104.356 191.273 109.586 200.788 109.586C207.601 109.586 214.009 106.942 218.836 102.143C218.953 102.026 219.107 101.964 219.271 101.964C219.348 101.964 219.422 101.976 219.493 102.004C221.891 102.925 224.412 103.389 226.989 103.389C232.211 103.389 237.211 101.459 241.067 97.953C241.181 97.8514 241.329 97.793 241.483 97.793C241.508 97.793 241.532 97.793 241.557 97.796C241.736 97.8176 241.896 97.9192 241.995 98.0669C246.751 105.276 254.741 109.583 263.372 109.583C272.634 109.583 281.201 104.556 285.723 96.4631C285.83 96.2691 286.037 96.146 286.262 96.146C286.358 96.146 286.453 96.1676 286.539 96.2138C288.469 97.1896 290.547 97.6852 292.714 97.6852C299.729 97.6852 305.574 92.4366 306.307 85.4796C306.341 85.1656 306.603 84.9285 306.918 84.9285C306.933 84.9285 306.948 84.9285 306.964 84.9285C307.62 84.9747 308.172 84.9962 308.693 84.9962C321.96 84.9962 332.755 74.2159 332.755 60.9667C332.755 47.7175 321.96 36.9371 308.693 36.9371C304.791 36.9371 300.91 37.8975 297.47 39.7107C297.38 39.7569 297.282 39.7815 297.183 39.7815C297.103 39.7815 297.023 39.7661 296.949 39.7353C296.779 39.6645 296.65 39.5229 296.594 39.3475C294.088 31.2545 286.7 25.815 278.211 25.815C273.038 25.815 268.186 27.8375 264.543 31.5069C264.429 31.6239 264.269 31.6885 264.105 31.6885C264.074 31.6885 264.047 31.6885 264.016 31.6824C263.822 31.6547 263.652 31.5315 263.56 31.3591C261.186 26.8555 256.547 24.0573 251.458 24.0573C249.525 24.0573 247.651 24.4544 245.891 25.2394C245.811 25.2763 245.728 25.2917 245.641 25.2917C245.546 25.2917 245.45 25.2702 245.367 25.2271C245.201 25.147 245.083 24.9962 245.04 24.8176C241.77 10.9251 229.495 1.22209 215.193 1.22209C202.582 1.22209 191.076 9.12421 186.554 20.8835C186.495 21.0374 186.378 21.1606 186.227 21.2252C186.147 21.2591 186.063 21.2775 185.977 21.2775C185.9 21.2775 185.823 21.2621 185.752 21.2344C182.768 20.0647 179.627 19.4705 176.415 19.4705C166.604 19.4705 157.535 25.1901 153.312 34.0404C153.211 34.2559 153.001 34.3913 152.779 34.3913C152.761 34.3913 152.579 34.3852 152.579 34.3852C152.449 34.3821 152.317 34.3759 152.184 34.3759C152.116 34.3759 152.048 34.3759 151.981 34.379L151.82 34.3821C151.672 34.3821 151.549 34.339 151.447 34.262C148.26 31.904 144.475 30.6572 140.499 30.6572C134.645 30.6572 129.272 33.3447 125.755 38.0299C125.657 38.1623 125.505 38.2485 125.342 38.27C125.314 38.2731 125.29 38.2762 125.262 38.2762C125.126 38.2762 124.991 38.23 124.883 38.1438C121.606 35.5642 117.67 34.2004 113.496 34.2004C109.079 34.2004 104.807 35.792 101.462 38.6794C101.351 38.7749 101.206 38.8303 101.058 38.8303C101.025 38.8303 100.988 38.8303 100.954 38.821C100.772 38.7902 100.615 38.6794 100.522 38.5194C95.8984 30.3833 87.2182 25.3256 77.8691 25.3256C67.9097 25.3256 58.9705 30.8666 54.538 39.7876C54.4609 39.9385 54.3284 40.0524 54.165 40.1016C54.1064 40.1201 54.0448 40.1293 53.9862 40.1293C53.8783 40.1293 53.7735 40.1016 53.681 40.0493C50.9191 38.4793 47.775 37.6482 44.5909 37.6482C35.362 37.6482 27.514 44.5345 26.3365 53.6618C26.3119 53.8465 26.2101 54.0065 26.0529 54.105C25.9543 54.1666 25.8433 54.1974 25.7262 54.1974C25.6584 54.1974 25.5936 54.1851 25.5289 54.1666C23.627 53.5263 21.6481 53.2 19.6445 53.2C9.49089 53.2 1.23298 61.45 1.23298 71.587C1.23298 81.724 9.49397 89.9739 19.6445 89.9739C20.4614 89.9739 21.3059 89.9155 22.1567 89.7985C22.1844 89.7954 22.2122 89.7923 22.2368 89.7923C22.4865 89.7923 22.7116 89.9401 22.8071 90.1679C27.8562 102.029 39.4555 109.694 52.3617 109.694C57.0933 109.694 61.6615 108.684 65.9338 106.689C66.014 106.652 66.1065 106.631 66.1959 106.631C66.3007 106.631 66.4024 106.659 66.4918 106.708C69.192 108.195 72.259 108.98 75.3569 108.98C78.051 108.98 80.6556 108.407 83.0938 107.277C83.174 107.24 83.2634 107.219 83.3528 107.219V107.237Z" fill="white"/>
</svg>
