<svg width="159" height="84" viewBox="0 0 159 84" fill="none" xmlns="http://www.w3.org/2000/svg">
<path d="M76.8046 84C69.6108 84 62.8896 80.8057 58.345 75.2274C56.4032 76.4903 54.1527 77.1587 51.8286 77.1587C48.0678 77.1587 44.4955 75.3665 42.2451 72.3605C39.2627 74.3054 35.8024 75.331 32.2301 75.331C28.6578 75.331 25.2494 74.3218 22.2862 72.4096C19.7189 75.331 16.0237 77.0059 12.1292 77.0059C8.57054 77.0059 5.21401 75.6365 2.67407 73.1488C0.366287 70.8874 -1.05116 67.8896 -1.32973 64.6899C-3.02029 65.541 -4.91294 65.991 -6.81379 65.991C-13.5323 65.991 -19 60.53 -19 53.8196C-19 49.6951 -16.8397 45.7698 -13.3521 43.5494C-13.8218 42.0546 -14.0622 40.4997 -14.0622 38.9285C-14.0622 30.4177 -7.13061 23.4919 1.39318 23.4919C3.14109 23.4919 4.85896 23.7837 6.50036 24.3593C8.37117 19.0264 13.5958 15.3112 19.2601 15.3112C20.896 15.3112 22.4965 15.6003 24.015 16.1731C27.0356 11.4813 32.1646 8.68533 37.7552 8.68533C42.4172 8.68533 46.847 10.6712 49.9441 14.1437C53.47 5.67383 61.9692 0 71.1621 0C76.4277 0 81.5731 1.8249 85.6506 5.14191C89.4551 8.23524 92.208 12.5343 93.4179 17.2615C95.6192 15.9849 98.1263 15.3139 100.68 15.3139C106.636 15.3139 112.05 19.021 114.199 24.5557C116.859 23.1427 119.855 22.398 122.873 22.398C129.826 22.398 136.113 26.2169 139.306 32.3763C140.797 31.8962 142.348 31.6534 143.924 31.6534C152.238 31.6534 159 38.4075 159 46.7109C159 55.0144 152.238 61.7684 143.924 61.7684C143.045 61.7684 142.157 61.6893 141.281 61.5338C140.62 67.6059 135.534 72.1668 129.395 72.1668C127.6 72.1668 125.806 71.7576 124.197 70.9829C121.404 76.444 115.655 79.9656 109.518 79.9656C104.454 79.9656 99.6011 77.5842 96.4931 73.5825C92.0523 80.1102 84.7057 84 76.8046 84ZM58.457 73.9453C58.6263 73.9453 58.7847 74.0217 58.8885 74.1553C63.2309 79.7173 69.761 82.9089 76.8073 82.9089C84.6346 82.9089 91.812 78.9563 96.007 72.3359C96.1053 72.1804 96.2719 72.0877 96.4549 72.0822C96.6488 72.0822 96.8127 72.1695 96.9137 72.3141C99.795 76.4222 104.509 78.8717 109.518 78.8717C115.463 78.8717 120.934 75.3938 123.457 70.0091C123.52 69.8727 123.64 69.769 123.782 69.7227C123.837 69.7036 123.894 69.6954 123.952 69.6954C124.042 69.6954 124.132 69.7172 124.214 69.7609C125.795 70.6201 127.587 71.0729 129.398 71.0729C135.155 71.0729 139.918 66.5802 140.245 60.8464C140.254 60.6855 140.333 60.5382 140.461 60.4427C140.557 60.3718 140.672 60.3308 140.792 60.3308C140.83 60.3308 140.871 60.3363 140.909 60.3445C141.906 60.5627 142.922 60.6745 143.93 60.6745C151.64 60.6745 157.913 54.4088 157.913 46.7082C157.913 39.0076 151.64 32.7418 143.93 32.7418C142.318 32.7418 140.734 33.0146 139.221 33.5547C139.161 33.5765 139.101 33.5875 139.038 33.5875C138.831 33.5875 138.637 33.4674 138.547 33.2792C135.603 27.2371 129.6 23.4864 122.878 23.4864C119.828 23.4864 116.818 24.2911 114.183 25.8132C114.098 25.8623 114.005 25.8869 113.909 25.8869C113.844 25.8869 113.778 25.876 113.715 25.8514C113.563 25.7941 113.442 25.6714 113.39 25.5159C111.55 20.0657 106.443 16.4023 100.683 16.4023C98.0744 16.4023 95.5427 17.1552 93.3605 18.5763C93.2704 18.6336 93.1666 18.6664 93.0629 18.6664C92.9918 18.6664 92.9208 18.6527 92.8553 18.6254C92.6887 18.5572 92.5658 18.4127 92.5275 18.2381C90.3454 8.30344 81.36 1.09112 71.1648 1.09112C62.0402 1.09112 53.7868 6.83588 50.6323 15.3848C50.5641 15.5703 50.4002 15.704 50.2063 15.734C50.1762 15.7394 50.1489 15.7394 50.1189 15.7394C49.9496 15.7394 49.7939 15.6658 49.6901 15.5348C46.776 11.8741 42.4281 9.77645 37.7552 9.77645C32.3749 9.77645 27.4944 12.5261 24.7059 17.1306C24.6076 17.2943 24.4274 17.3952 24.2389 17.3952C24.1679 17.3952 24.0969 17.3816 24.0286 17.3543C22.5156 16.7242 20.9097 16.405 19.2628 16.405C13.8279 16.405 8.93651 20.033 7.36885 25.2295C7.32515 25.374 7.22137 25.4968 7.08482 25.5623C7.01108 25.5977 6.92914 25.6168 6.84721 25.6168C6.77893 25.6168 6.71065 25.6032 6.64784 25.5786C4.96821 24.9185 3.20118 24.5857 1.39592 24.5857C-6.5243 24.5857 -12.967 31.0206 -12.967 38.9312C-12.967 40.527 -12.7021 42.1037 -12.1804 43.6121C-12.0958 43.8576 -12.1968 44.1304 -12.4208 44.2613C-15.8046 46.2472 -17.9076 49.9079 -17.9076 53.8223C-17.9076 59.9326 -12.9315 64.9026 -6.81379 64.9026C-4.80097 64.9026 -2.83184 64.3571 -1.11397 63.3287C-1.02931 63.2769 -0.930988 63.2523 -0.832668 63.2523C-0.739811 63.2523 -0.649683 63.2769 -0.567751 63.3205C-0.398422 63.4133 -0.289177 63.5933 -0.286446 63.787C-0.141697 70.4783 5.42703 75.9202 12.1292 75.9202C15.8763 75.9202 19.3885 74.2536 21.7618 71.3457C21.8656 71.2175 22.0212 71.1439 22.1851 71.1439C22.2944 71.1439 22.4009 71.1766 22.4937 71.2393C25.3696 73.2061 28.737 74.2454 32.2329 74.2454C35.7287 74.2454 39.1726 73.1815 42.0731 71.1684C42.1659 71.1057 42.2724 71.0702 42.3844 71.0702C42.4172 71.0702 42.4527 71.0729 42.4854 71.0784C42.6275 71.1057 42.7558 71.1875 42.8378 71.3075C44.867 74.289 48.229 76.0703 51.834 76.0703C54.1118 76.0703 56.2939 75.372 58.1429 74.049C58.2357 73.9835 58.345 73.9481 58.4597 73.9481L58.457 73.9453Z" fill="white"/>
</svg>
