<svg width="55" height="25" viewBox="0 0 55 25" fill="none" xmlns="http://www.w3.org/2000/svg">
<path d="M1.65614 0.0069441C1.21427 0.0069441 0.796748 0.177434 0.483613 0.490568C0.170479 0.803703 0 1.22121 0 1.6596C0 2.10147 0.170479 2.51897 0.483613 2.82863C0.796748 3.14176 1.21427 3.31225 1.65614 3.31225C2.098 3.31225 2.51203 3.14176 2.82517 2.82863C3.1383 2.51549 3.30879 2.10146 3.30879 1.65612C3.30879 1.21077 3.13482 0.796737 2.82517 0.483603C2.51203 0.170468 2.098 0 1.65614 0V0.0069441Z" fill="white"/>
<path d="M12.0731 0.00695801C11.1616 0.00695801 10.4205 0.751526 10.417 1.6631C10.417 2.57466 11.1581 3.31923 12.0731 3.31923C12.9847 3.31923 13.7293 2.57466 13.7293 1.6631C13.7293 0.751526 12.9847 0.00695801 12.0731 0.00695801Z" fill="white"/>
<path d="M21.4358 0.00702271C20.9939 0.00702271 20.5764 0.177512 20.2633 0.490647C19.9501 0.803781 19.7797 1.21781 19.7797 1.65968C19.7797 2.10154 19.9501 2.51906 20.2633 2.83219C20.5764 3.14532 20.9905 3.31581 21.4323 3.31581C22.3439 3.31581 23.0884 2.57473 23.0884 1.65968C23.0884 1.21781 22.918 0.800299 22.6048 0.487164C22.2917 0.174029 21.8777 0.00354004 21.4323 0.00354004L21.4358 0.00702271Z" fill="white"/>
<path d="M31.8528 0.00695801C30.9412 0.00695801 30.1967 0.751526 30.1967 1.6631C30.1967 2.57466 30.9377 3.31923 31.8528 3.31923C32.7644 3.31923 33.5089 2.57814 33.5089 1.6631C33.5089 0.748046 32.7644 0.00695801 31.8528 0.00695801Z" fill="white"/>
<path d="M42.2697 0.00695801C41.3581 0.00695801 40.617 0.748046 40.6135 1.6631C40.6135 2.57466 41.3581 3.31923 42.2697 3.31923C43.1812 3.31923 43.9258 2.57466 43.9258 1.6631C43.9258 1.22123 43.7553 0.803716 43.4422 0.490582C43.129 0.177447 42.7115 0.00695801 42.2697 0.00695801Z" fill="white"/>
<path d="M52.6867 3.31923C53.1285 3.31923 53.5426 3.14874 53.8557 2.83561C54.1688 2.52247 54.3393 2.10844 54.3393 1.6631C54.3393 1.21775 54.1688 0.803716 53.8557 0.490582C53.5426 0.177447 53.1285 0.00695801 52.6867 0.00695801C52.2448 0.00695801 51.8273 0.177447 51.5141 0.490582C51.201 0.803716 51.0305 1.21774 51.0305 1.65961C51.0305 2.10148 51.201 2.51899 51.5141 2.83213C51.8273 3.14526 52.2413 3.31575 52.6832 3.31575L52.6867 3.31923Z" fill="white"/>
<path d="M1.65614 10.5911C1.21427 10.5911 0.796748 10.7651 0.483613 11.0747C0.170479 11.3879 0 11.8019 0 12.2438C0 12.6857 0.170479 13.1032 0.483613 13.4128C0.796748 13.7259 1.21079 13.8964 1.65614 13.8964C2.098 13.8964 2.51203 13.7259 2.82517 13.4128C3.1383 13.0997 3.30879 12.6857 3.30879 12.2438C3.30879 11.8019 3.13482 11.3844 2.82169 11.0712C2.50855 10.7581 2.09452 10.5876 1.65265 10.5876L1.65614 10.5911Z" fill="white"/>
<path d="M12.0731 10.5911C11.1616 10.5911 10.4205 11.3356 10.417 12.2472C10.417 13.1587 11.1616 13.9033 12.0731 13.9033C12.9847 13.9033 13.7293 13.1587 13.7293 12.2472C13.7293 11.3356 12.9847 10.5911 12.0731 10.5911Z" fill="white"/>
<path d="M21.4357 10.5909C20.9939 10.5909 20.5764 10.7614 20.2667 11.0746C19.9536 11.3877 19.7831 11.8017 19.7831 12.2436C19.7831 12.6855 19.9536 13.103 20.2667 13.4126C20.5798 13.7258 20.9939 13.8963 21.4357 13.8963C22.3473 13.8963 23.0919 13.1552 23.0919 12.2401C23.0919 11.7983 22.9214 11.3807 22.6083 11.0676C22.2951 10.7545 21.8811 10.584 21.4392 10.584L21.4357 10.5909Z" fill="white"/>
<path d="M31.8528 10.5875C30.9412 10.5875 30.1967 11.332 30.1967 12.2436C30.1967 12.6855 30.3671 13.0995 30.6803 13.4126C30.9934 13.7258 31.4074 13.8963 31.8528 13.8963C32.7644 13.8963 33.5089 13.1552 33.5089 12.2401C33.5089 11.3286 32.7644 10.584 31.8528 10.584V10.5875Z" fill="white"/>
<path d="M42.2697 10.5911C41.3581 10.5911 40.6135 11.3321 40.6135 12.2472C40.6135 13.1587 41.3581 13.9033 42.2697 13.9033C42.7115 13.9033 43.129 13.7293 43.4387 13.4197C43.7518 13.1066 43.9223 12.6925 43.9223 12.2507C43.9223 11.8088 43.7518 11.3913 43.4387 11.0781C43.1256 10.765 42.7115 10.5945 42.2662 10.5945L42.2697 10.5911Z" fill="white"/>
<path d="M52.6901 10.5911C52.2483 10.5911 51.8308 10.7616 51.5211 11.0747C51.2114 11.3879 51.0375 11.8019 51.0375 12.2438C51.0375 12.6857 51.208 13.0997 51.5211 13.4128C51.8342 13.7259 52.2483 13.8999 52.6936 13.8999C53.1355 13.8999 53.553 13.7294 53.8627 13.4163C54.1758 13.1032 54.3463 12.6891 54.3463 12.2438C54.3463 11.8019 54.1723 11.3844 53.8592 11.0712C53.546 10.7581 53.132 10.5876 52.6901 10.5876V10.5911Z" fill="white"/>
<path d="M1.65614 21.1715C0.744568 21.1715 0 21.9161 0 22.8276C0 23.2695 0.170479 23.687 0.483613 24.0002C0.796748 24.3133 1.21079 24.4838 1.65614 24.4838C2.098 24.4838 2.51203 24.3133 2.82517 24.0002C3.1383 23.687 3.30879 23.273 3.30879 22.8311C3.30879 22.3893 3.13482 21.9717 2.82517 21.6586C2.51203 21.3455 2.098 21.175 1.65614 21.175V21.1715Z" fill="white"/>
<path d="M12.0731 21.1715C11.1616 21.1715 10.417 21.9161 10.417 22.8276C10.417 23.7392 11.1616 24.4838 12.0731 24.4838C12.9847 24.4838 13.7293 23.7392 13.7293 22.8276C13.7293 21.9161 12.9847 21.1715 12.0731 21.1715Z" fill="white"/>
<path d="M21.4357 21.1715C20.9939 21.1715 20.5798 21.342 20.2667 21.6551C19.9536 21.9683 19.7831 22.3823 19.7831 22.8242C19.7831 23.266 19.9536 23.6835 20.2667 23.9932C20.5798 24.3063 20.9939 24.4768 21.4392 24.4768C22.3508 24.4768 23.0954 23.7357 23.0954 22.8207C23.0954 22.3788 22.9249 21.9613 22.6117 21.6482C22.2986 21.335 21.8846 21.1646 21.4427 21.1646L21.4357 21.1715Z" fill="white"/>
<path d="M31.8528 21.1715C30.9412 21.1715 30.1967 21.916 30.1967 22.8276C30.1967 23.2695 30.3671 23.687 30.6803 23.9966C30.9934 24.3098 31.4074 24.4802 31.8528 24.4802C32.7644 24.4802 33.5089 23.7357 33.5089 22.8241C33.5089 21.9091 32.7644 21.168 31.8528 21.168V21.1715Z" fill="white"/>
<path d="M42.2697 21.1715C41.8279 21.1715 41.4103 21.342 41.1007 21.6551C40.7875 21.9683 40.6171 22.3823 40.6171 22.8276C40.6171 23.7392 41.3616 24.4838 42.2732 24.4838C42.715 24.4838 43.1326 24.3098 43.4457 24.0002C43.7589 23.687 43.9293 23.273 43.9293 22.8311C43.9293 21.9196 43.1882 21.175 42.2732 21.175L42.2697 21.1715Z" fill="white"/>
<path d="M52.6902 21.1715H52.6867C52.2448 21.1715 51.8308 21.3419 51.5177 21.6551C51.2045 21.9682 51.0341 22.3822 51.0341 22.8241C51.0341 23.266 51.2045 23.68 51.5177 23.9931C51.8308 24.3063 52.2483 24.4802 52.6902 24.4802C53.132 24.4802 53.5496 24.3098 53.8592 23.9966C54.1724 23.6835 54.3428 23.2695 54.3428 22.8241C54.3428 22.3822 54.1689 21.9647 53.8557 21.6516C53.5426 21.3385 53.1286 21.168 52.6902 21.168V21.1715Z" fill="white"/>
</svg>
