<svg width="138" height="48" viewBox="0 0 138 48" fill="none" xmlns="http://www.w3.org/2000/svg">
<g clip-path="url(#clip0_42_6477)">
<path d="M7.8479 7.94141H11.0079V14.7814C11.0079 15.7734 10.9279 16.6054 10.7759 17.2774C10.6239 17.9494 10.2719 18.5494 9.73591 19.0774C8.8239 19.9814 7.4799 20.4294 5.7039 20.4294C3.9279 20.4294 2.5839 19.9814 1.6719 19.0774C1.1359 18.5494 0.7839 17.9494 0.6319 17.2774C0.4799 16.6054 0.399902 15.7734 0.399902 14.7814V7.94141H3.5599V14.3414C3.5599 14.7254 3.5599 15.0534 3.5839 15.3094C3.5999 15.5654 3.6479 15.8614 3.7279 16.1814C3.8079 16.5014 3.9199 16.7654 4.0639 16.9574C4.2079 17.1494 4.4239 17.3174 4.7039 17.4454C4.9839 17.5814 5.3199 17.6454 5.7039 17.6454C6.0879 17.6454 6.4239 17.5814 6.7039 17.4454C6.9839 17.3094 7.19991 17.1494 7.34391 16.9574C7.48791 16.7654 7.5999 16.5094 7.6799 16.1814C7.7599 15.8614 7.8079 15.5654 7.8239 15.3094C7.8399 15.0534 7.8479 14.7254 7.8479 14.3414V7.94141Z" fill="#201AD9"/>
<path d="M20.9439 8.6214L19.6879 11.0694C19.0399 10.5334 18.3439 10.2614 17.5919 10.2614C17.2559 10.2614 16.9519 10.3494 16.6639 10.5334C16.3759 10.7174 16.2399 10.9654 16.2399 11.2774C16.2399 11.4934 16.3279 11.6854 16.5039 11.8614C16.6799 12.0294 16.8479 12.1494 16.9999 12.2134C17.1519 12.2774 17.3679 12.3494 17.6399 12.4374L18.4479 12.6774C19.3919 12.9574 20.1279 13.3494 20.6559 13.8614C21.1839 14.3734 21.4479 15.0854 21.4479 15.9974C21.4479 17.4694 21.0319 18.5654 20.1919 19.2694C19.2879 20.0294 18.1359 20.4134 16.7439 20.4134C15.2159 20.4134 13.7919 19.9494 12.4719 19.0294L13.8239 16.4774C14.7839 17.3174 15.7199 17.7334 16.6319 17.7334C17.0399 17.7334 17.3999 17.6294 17.7039 17.4214C18.0079 17.2134 18.1679 16.9094 18.1679 16.5094C18.1679 15.9574 17.6559 15.5334 16.6319 15.2374C16.5999 15.2294 16.4719 15.1894 16.2479 15.1254C15.6639 14.9654 15.2079 14.8134 14.8799 14.6774C14.5439 14.5414 14.2159 14.3414 13.8799 14.0854C13.5439 13.8294 13.3119 13.5094 13.1679 13.1254C13.0239 12.7414 12.9599 12.2614 12.9599 11.6934C12.9599 10.4694 13.3519 9.4774 14.1359 8.7334C14.9199 7.9894 15.9279 7.6134 17.1519 7.6134C17.7679 7.6134 18.4159 7.7014 19.1119 7.8854C19.8079 8.0694 20.4239 8.3094 20.9599 8.6134L20.9439 8.6214Z" fill="#201AD9"/>
<path d="M35.9359 17.9894H31.5839L30.7439 20.1014H27.3919L32.0719 7.94141H35.5279L40.1119 20.1014H36.7439L35.9519 17.9894H35.9359ZM35.0799 15.5734L33.7919 11.7014H33.7599L32.4559 15.5734H35.0879H35.0799Z" fill="#201AD9"/>
<path d="M46.9839 12.0374V14.5174C46.4559 14.1334 45.9519 13.9334 45.4639 13.9334C44.8959 13.9334 44.4159 14.1254 44.0319 14.5174C43.6479 14.9014 43.4479 15.3814 43.4479 15.9494C43.4479 16.5174 43.6399 17.0294 44.0319 17.4054C44.4159 17.7894 44.9119 17.9814 45.5119 17.9814C46.0799 17.9814 46.5679 17.7974 46.9759 17.4134V19.8934C46.3519 20.2054 45.6639 20.3574 44.9119 20.3574C43.6639 20.3574 42.5999 19.9494 41.7279 19.1254C40.8479 18.3014 40.4159 17.2694 40.4159 16.0374C40.4159 14.7254 40.8559 13.6454 41.7439 12.8054C42.6319 11.9574 43.7279 11.5414 45.0399 11.5414C45.7519 11.5414 46.3919 11.7014 46.9759 12.0214L46.9839 12.0374Z" fill="#201AD9"/>
<path d="M57.8559 11.8294V20.1014H54.9199V19.1814H54.8879C54.6399 19.5814 54.288 19.8774 53.84 20.0774C53.392 20.2774 52.9039 20.3734 52.3839 20.3734C51.1839 20.3734 50.184 19.9414 49.392 19.0774C48.5999 18.2134 48.2079 17.1734 48.2079 15.9574C48.2079 14.7414 48.5999 13.7014 49.3759 12.8454C50.1519 11.9814 51.1439 11.5574 52.3519 11.5574C53.4479 11.5574 54.3039 11.9174 54.9199 12.6374V11.8294H57.8559ZM54.5119 14.6454C54.1759 14.2854 53.712 14.1014 53.136 14.1014C52.56 14.1014 52.096 14.2854 51.76 14.6454C51.424 15.0054 51.2559 15.4454 51.2559 15.9734C51.2559 16.5014 51.424 16.9574 51.76 17.3014C52.096 17.6534 52.56 17.8294 53.136 17.8294C53.712 17.8294 54.1759 17.6534 54.5119 17.3014C54.8479 16.9494 55.016 16.5094 55.016 15.9734C55.016 15.4374 54.8479 15.0054 54.5119 14.6454Z" fill="#201AD9"/>
<path d="M66.0319 20.1094V19.1894H65.9999C65.7519 19.5894 65.3999 19.8854 64.9519 20.0854C64.5039 20.2854 64.0159 20.3814 63.5039 20.3814C62.2959 20.3814 61.3039 19.9494 60.5119 19.0854C59.7199 18.2214 59.3279 17.1814 59.3279 15.9654C59.3279 14.7494 59.7199 13.7094 60.4959 12.8534C61.2719 11.9894 62.2639 11.5654 63.4719 11.5654C64.5679 11.5654 65.4239 11.9254 66.0399 12.6454V6.7254H68.9759V20.1174H66.0399L66.0319 20.1094ZM65.6239 14.6454C65.2879 14.2854 64.8239 14.1014 64.2479 14.1014C63.6719 14.1014 63.2079 14.2854 62.8719 14.6454C62.5359 15.0054 62.3679 15.4454 62.3679 15.9734C62.3679 16.5014 62.5359 16.9574 62.8719 17.3014C63.2079 17.6534 63.6719 17.8294 64.2479 17.8294C64.8239 17.8294 65.2879 17.6534 65.6239 17.3014C65.9599 16.9494 66.1359 16.5094 66.1359 15.9734C66.1359 15.4374 65.9679 15.0054 65.6239 14.6454Z" fill="#201AD9"/>
<path d="M79.312 16.1574V16.4614H73.136C73.136 17.6854 73.752 18.3014 74.976 18.3014C75.608 18.3014 76.08 18.0454 76.376 17.5414H79.2C78.976 18.4694 78.472 19.1734 77.688 19.6534C76.904 20.1334 76.0079 20.3814 74.9919 20.3814C73.5759 20.3814 72.416 19.9974 71.536 19.2214C70.6479 18.4454 70.2079 17.3654 70.2079 15.9814C70.2079 14.5974 70.6319 13.5414 71.4719 12.7494C72.3119 11.9574 73.4239 11.5654 74.784 11.5654C76.144 11.5654 77.328 11.9734 78.12 12.7974C78.912 13.6214 79.312 14.7414 79.312 16.1574ZM73.1839 14.7734H76.584C76.512 14.3894 76.312 14.0694 76 13.8294C75.688 13.5894 75.3279 13.4694 74.9199 13.4694C74.4799 13.4694 74.0959 13.5814 73.7839 13.8054C73.4719 14.0294 73.2639 14.3574 73.1759 14.7734H73.1839Z" fill="#201AD9"/>
<path d="M83.5839 11.8294V12.8614H83.6159C84.2719 11.9894 85.1439 11.5574 86.2319 11.5574C87.5439 11.5574 88.4879 12.0854 89.0559 13.1414C89.3359 12.6374 89.7279 12.2454 90.2319 11.9734C90.7359 11.7014 91.2799 11.5654 91.8639 11.5654C93.7439 11.5654 94.6879 12.6534 94.6879 14.8374V20.1094H91.7519V16.1574C91.7519 15.8854 91.7519 15.6934 91.7519 15.5734C91.7519 15.4534 91.7279 15.2694 91.6879 15.0054C91.6479 14.7414 91.5919 14.5574 91.5199 14.4214C91.4479 14.2934 91.3199 14.1734 91.1599 14.0614C90.9919 13.9494 90.7919 13.8934 90.5519 13.8934C90.2959 13.8934 90.0719 13.9414 89.8879 14.0454C89.7039 14.1494 89.5679 14.2694 89.4719 14.3974C89.3759 14.5334 89.3039 14.7094 89.2559 14.9414C89.2079 15.1734 89.1759 15.3654 89.1679 15.5334C89.1599 15.7014 89.1519 15.9094 89.1519 16.1574V20.1094H86.2159V16.1574C86.2159 15.9414 86.2159 15.7734 86.2159 15.6614C86.2159 15.5494 86.1999 15.3734 86.1759 15.1654C86.1519 14.9494 86.1199 14.7814 86.0639 14.6454C86.0079 14.5174 85.9359 14.3814 85.8479 14.2454C85.7599 14.1094 85.6319 14.0054 85.4719 13.9414C85.3119 13.8774 85.1279 13.8454 84.9199 13.8454C84.7119 13.8454 84.5359 13.8774 84.3679 13.9414C84.2079 14.0054 84.0799 14.1094 83.9919 14.2454C83.9039 14.3814 83.8239 14.5174 83.7759 14.6454C83.7199 14.7734 83.6879 14.9494 83.6639 15.1654C83.6399 15.3814 83.6319 15.5494 83.6239 15.6614C83.6159 15.7734 83.6239 15.9494 83.6239 16.1574V20.1094H80.6879V11.8374H83.6239L83.5839 11.8294Z" fill="#201AD9"/>
<path d="M99.392 18.9734L95.392 11.8294H98.776L100.984 16.0694L103.144 11.8294H106.48L99.848 24.2374H96.56L99.384 18.9814L99.392 18.9734Z" fill="#201AD9"/>
<path d="M21.8201 37.3254H24.5651C26.3801 37.3254 27.6701 36.2754 27.6701 34.5204C27.6701 33.2304 26.9051 32.2254 25.6001 32.0154C26.2601 31.6104 26.7701 30.9054 26.7701 29.8254C26.7701 28.3254 25.7501 27.3204 24.0101 27.3204H21.8201V37.3254ZM22.4801 27.9204H23.7551C24.2801 27.9204 24.9251 27.9504 25.4201 28.3404C25.7501 28.6104 26.0951 29.1054 26.0951 29.9004C26.0951 30.5904 25.8401 31.1004 25.4351 31.4304C25.0001 31.7904 24.5801 31.8504 24.0701 31.8504H22.4801V27.9204ZM22.4801 32.4504H24.0401C25.1501 32.4504 25.6451 32.6154 25.9151 32.7354C26.6651 33.0804 26.9801 33.6954 26.9801 34.5954C26.9801 35.0604 26.8751 35.6454 26.3351 36.1254C25.6601 36.7254 24.8351 36.7254 24.1601 36.7254H22.4801V32.4504ZM35.0378 34.3404C35.0378 32.3904 33.7928 31.0704 32.1428 31.0704C30.6428 31.0704 29.1728 32.1654 29.1728 34.2954C29.1728 36.0804 30.2828 37.4904 32.1878 37.4904C33.7028 37.4904 34.5128 36.5154 34.8728 35.8254L34.3628 35.5254C33.9728 36.3354 33.2228 36.9204 32.2328 36.9204C30.9428 36.9204 29.8028 35.9004 29.8028 34.3404H35.0378ZM29.8478 33.7704C30.0128 32.5854 30.8978 31.6404 32.1428 31.6404C33.3578 31.6404 34.2578 32.5554 34.4078 33.7704H29.8478ZM38.5237 31.7754V31.2054H37.4587V29.0154H36.8587V31.2054H36.1837V31.7754H36.8587V37.3254H37.4587V31.7754H38.5237ZM41.5853 31.7754V31.2054H40.5203V29.0154H39.9203V31.2054H39.2453V31.7754H39.9203V37.3254H40.5203V31.7754H41.5853ZM48.2653 34.3404C48.2653 32.3904 47.0203 31.0704 45.3703 31.0704C43.8703 31.0704 42.4003 32.1654 42.4003 34.2954C42.4003 36.0804 43.5103 37.4904 45.4153 37.4904C46.9303 37.4904 47.7403 36.5154 48.1003 35.8254L47.5903 35.5254C47.2003 36.3354 46.4503 36.9204 45.4603 36.9204C44.1703 36.9204 43.0303 35.9004 43.0303 34.3404H48.2653ZM43.0753 33.7704C43.2403 32.5854 44.1253 31.6404 45.3703 31.6404C46.5853 31.6404 47.4853 32.5554 47.6353 33.7704H43.0753ZM50.0413 37.3254H50.6413V34.0404C50.6413 33.2754 50.6563 31.6404 51.8863 31.6404C52.1563 31.6404 52.2763 31.7154 52.3363 31.7604L52.6363 31.2204C52.4113 31.1004 52.1563 31.0704 51.9913 31.0704C51.3313 31.0704 50.8663 31.4754 50.6413 32.0004V31.2054H50.0413V37.3254ZM57.7087 27.3204V37.3254H61.1587V36.7254H58.3687V27.3204H57.7087ZM67.4548 34.3404C67.4548 32.3904 66.2098 31.0704 64.5598 31.0704C63.0598 31.0704 61.5898 32.1654 61.5898 34.2954C61.5898 36.0804 62.6998 37.4904 64.6048 37.4904C66.1198 37.4904 66.9298 36.5154 67.2898 35.8254L66.7798 35.5254C66.3898 36.3354 65.6398 36.9204 64.6498 36.9204C63.3598 36.9204 62.2198 35.9004 62.2198 34.3404H67.4548ZM62.2648 33.7704C62.4298 32.5854 63.3148 31.6404 64.5598 31.6404C65.7748 31.6404 66.6748 32.5554 66.8248 33.7704H62.2648ZM74.2107 32.2704C73.6257 31.4454 72.7857 31.0704 71.8257 31.0704C70.0407 31.0704 68.8407 32.3754 68.8407 34.2654C68.8407 36.2754 70.2207 37.4904 71.8257 37.4904C72.6207 37.4904 73.5957 37.1754 74.2107 36.2304V37.3254H74.8107V31.2054H74.2107V32.2704ZM71.8557 31.6404C72.9057 31.6404 74.2407 32.4054 74.2407 34.2204C74.2407 35.6304 73.4007 36.9204 71.8707 36.9204C70.3257 36.9204 69.4707 35.6004 69.4707 34.2204C69.4707 32.5554 70.6407 31.6404 71.8557 31.6404ZM76.9651 37.3254H77.5651V34.0404C77.5651 33.2754 77.5801 31.6404 78.8101 31.6404C79.0801 31.6404 79.2001 31.7154 79.2601 31.7604L79.5601 31.2204C79.3351 31.1004 79.0801 31.0704 78.9151 31.0704C78.2551 31.0704 77.7901 31.4754 77.5651 32.0004V31.2054H76.9651V37.3254ZM80.8616 37.3254H81.4616V34.1454C81.4616 33.5454 81.5216 32.9754 81.7916 32.4954C82.0166 32.0904 82.4516 31.6404 83.2916 31.6404C84.0266 31.6404 84.3566 32.0154 84.4916 32.2404C84.7166 32.5854 84.7316 33.0504 84.7316 33.4704V37.3254H85.3316V33.4704C85.3316 32.9304 85.3016 32.3604 85.0316 31.9254C84.8966 31.7154 84.4316 31.0704 83.3366 31.0704C82.3016 31.0704 81.7466 31.6554 81.4616 32.1654V31.2054H80.8616V37.3254ZM87.4973 31.2054V37.3254H88.0973V31.2054H87.4973ZM87.7973 29.7204C88.0973 29.7204 88.3373 29.4954 88.3373 29.1654C88.3373 28.8354 88.0973 28.6104 87.7973 28.6104C87.4973 28.6104 87.2573 28.8354 87.2573 29.1654C87.2573 29.4954 87.4973 29.7204 87.7973 29.7204ZM90.2512 37.3254H90.8512V34.1454C90.8512 33.5454 90.9112 32.9754 91.1812 32.4954C91.4062 32.0904 91.8412 31.6404 92.6812 31.6404C93.4162 31.6404 93.7462 32.0154 93.8812 32.2404C94.1062 32.5854 94.1212 33.0504 94.1212 33.4704V37.3254H94.7212V33.4704C94.7212 32.9304 94.6912 32.3604 94.4212 31.9254C94.2862 31.7154 93.8212 31.0704 92.7262 31.0704C91.6912 31.0704 91.1362 31.6554 90.8512 32.1654V31.2054H90.2512V37.3254ZM101.927 31.2054V32.2704C101.402 31.5204 100.592 31.0704 99.587 31.0704C97.667 31.0704 96.497 32.4954 96.497 34.2654C96.497 36.3954 98.012 37.4904 99.512 37.4904C100.382 37.4904 101.312 37.1304 101.927 36.2754V37.1454C101.927 37.7754 101.867 40.2054 99.452 40.2054C98.147 40.2054 97.187 39.4254 97.082 38.1504H96.452C96.527 39.8454 97.862 40.7754 99.452 40.7754C101.372 40.7754 102.527 39.4554 102.527 37.1454V31.2054H101.927ZM99.527 31.6404C101.027 31.6404 101.957 32.8104 101.957 34.2354C101.957 35.7354 101.012 36.9204 99.497 36.9204C98.057 36.9204 97.127 35.7654 97.127 34.2954C97.127 32.8854 98.012 31.6404 99.527 31.6404ZM73.1995 60.3254L71.9095 58.9454C73.0495 57.7454 73.3495 56.3954 73.3495 55.3454C73.3495 52.4654 71.0695 50.1854 68.1595 50.1854C65.2345 50.1854 62.9695 52.4654 62.9695 55.3454C62.9695 58.2254 65.2345 60.4904 68.1595 60.4904C69.9145 60.4904 71.0095 59.7104 71.4445 59.3654L72.3295 60.3254H73.1995ZM68.1595 59.8904C65.5795 59.8904 63.6595 57.8954 63.6595 55.3454C63.6595 52.7804 65.5795 50.7854 68.1595 50.7854C70.7395 50.7854 72.6595 52.7954 72.6595 55.3454C72.6595 56.9504 71.9695 57.9404 71.4745 58.4804L69.3895 56.2304H68.5195L71.0245 58.9154C70.0345 59.6954 68.9695 59.8904 68.1595 59.8904ZM75.2366 54.2054V58.0604C75.2366 58.5554 75.2816 59.2004 75.7016 59.7404C76.1666 60.3404 76.9016 60.4904 77.4416 60.4904C77.9816 60.4904 78.7166 60.3404 79.1816 59.7404C79.6016 59.2004 79.6466 58.5554 79.6466 58.0604V54.2054H79.0466V57.8954C79.0466 58.3304 79.0316 58.9754 78.6566 59.4254C78.2816 59.8754 77.7266 59.9204 77.4416 59.9204C77.1566 59.9204 76.6016 59.8754 76.2266 59.4254C75.8516 58.9754 75.8366 58.3304 75.8366 57.8954V54.2054H75.2366ZM86.7937 55.2704C86.2087 54.4454 85.3687 54.0704 84.4087 54.0704C82.6237 54.0704 81.4237 55.3754 81.4237 57.2654C81.4237 59.2754 82.8037 60.4904 84.4087 60.4904C85.2037 60.4904 86.1787 60.1754 86.7937 59.2304V60.3254H87.3937V54.2054H86.7937V55.2704ZM84.4387 54.6404C85.4887 54.6404 86.8237 55.4054 86.8237 57.2204C86.8237 58.6304 85.9837 59.9204 84.4537 59.9204C82.9087 59.9204 82.0537 58.6004 82.0537 57.2204C82.0537 55.5554 83.2237 54.6404 84.4387 54.6404ZM89.5481 49.3904V60.3254H90.1481V49.3904H89.5481ZM92.302 54.2054V60.3254H92.902V54.2054H92.302ZM92.602 52.7204C92.902 52.7204 93.142 52.4954 93.142 52.1654C93.142 51.8354 92.902 51.6104 92.602 51.6104C92.302 51.6104 92.062 51.8354 92.062 52.1654C92.062 52.4954 92.302 52.7204 92.602 52.7204ZM96.7659 54.7754V54.2054H95.7009V52.0154H95.1009V54.2054H94.4259V54.7754H95.1009V60.3254H95.7009V54.7754H96.7659ZM98.7739 63.7754H99.4639L103.484 54.2054H102.794L100.559 59.6504L97.9939 54.2054H97.3039L100.214 60.4304L98.7739 63.7754Z" fill="#201AD9"/>
<path d="M137.68 0H112.08V3.19629H137.68V0Z" fill="#201AD9"/>
<path d="M131.287 4.79947H118.482V7.99576H131.287V4.79947Z" fill="#201AD9"/>
<path d="M134.484 13.4384H137.68V32.6458L124.885 45.4507L112.08 32.6458V13.4384H115.276V31.0427L124.885 40.6514L134.484 31.0427V13.4384Z" fill="#201AD9"/>
<path d="M121.679 27.2031V28.8062L124.885 32.0024L128.081 28.8062V25.6H118.482V9.59872H131.287V20.8006H128.081V12.795H121.679V22.4037H131.287V30.3994L124.885 36.8018L118.482 30.3994V27.2031H121.679Z" fill="#201AD9"/>
</g>
<defs>
<clipPath id="clip0_42_6477">
<rect width="137.6" height="48" fill="white" transform="translate(0.399902)"/>
</clipPath>
</defs>
</svg>
