<svg width="25" height="18" viewBox="0 0 25 18" fill="none" xmlns="http://www.w3.org/2000/svg">
<path d="M24.1714 14.2142H7.88572C7.77206 14.2142 7.66305 14.2594 7.58268 14.3398C7.50231 14.4201 7.45715 14.5291 7.45715 14.6428V17.2142C7.45715 17.3279 7.50231 17.4369 7.58268 17.5173C7.66305 17.5977 7.77206 17.6428 7.88572 17.6428H24.1714C24.2851 17.6428 24.3941 17.5977 24.4745 17.5173C24.5549 17.4369 24.6 17.3279 24.6 17.2142V14.6428C24.6 14.5291 24.5549 14.4201 24.4745 14.3398C24.3941 14.2594 24.2851 14.2142 24.1714 14.2142Z" fill="#02B88C"/>
<path d="M24.1714 17.2143H7.88572C7.77206 17.2143 7.66305 17.1692 7.58268 17.0888C7.50231 17.0084 7.45715 16.8994 7.45715 16.7858V17.2143C7.45715 17.328 7.50231 17.437 7.58268 17.5174C7.66305 17.5978 7.77206 17.6429 7.88572 17.6429H24.1714C24.2851 17.6429 24.3941 17.5978 24.4745 17.5174C24.5549 17.437 24.6 17.328 24.6 17.2143V16.7858C24.6 16.8994 24.5549 17.0084 24.4745 17.0888C24.3941 17.1692 24.2851 17.2143 24.1714 17.2143Z" fill="#019C77"/>
<path d="M14.3142 14.2142H17.7428V17.6428H14.3142V14.2142Z" fill="#F0F0F0"/>
<path d="M14.3142 17.2142H17.7428V17.6428H14.3142V17.2142Z" fill="#D2D2D2"/>
<path d="M15.1714 17.6428H14.3142V14.2142H15.1714V17.6428ZM17.7428 17.6428H16.8856V14.2142H17.7428V17.6428Z" fill="#FFCD20"/>
<path d="M15.1714 17.6428H14.3142V17.2142H15.1714V17.6428ZM17.7428 17.6428H16.8856V17.2142H17.7428V17.6428Z" fill="#DC9600"/>
<path d="M18.1714 17.6428H17.7428V14.2142H18.1714V17.6428Z" fill="#019C77"/>
<path d="M5.31431 10.7858H21.6C21.7137 10.7858 21.8227 10.8309 21.9031 10.9113C21.9834 10.9917 22.0286 11.1007 22.0286 11.2143V13.7858C22.0286 13.8994 21.9834 14.0084 21.9031 14.0888C21.8227 14.1692 21.7137 14.2143 21.6 14.2143H5.31431C5.20065 14.2143 5.09164 14.1692 5.01127 14.0888C4.9309 14.0084 4.88574 13.8994 4.88574 13.7858V11.2143C4.88574 11.1007 4.9309 10.9917 5.01127 10.9113C5.09164 10.8309 5.20065 10.7858 5.31431 10.7858Z" fill="#02B88C"/>
<path d="M21.6 13.7857H5.31431C5.20065 13.7857 5.09164 13.7406 5.01127 13.6602C4.9309 13.5799 4.88574 13.4708 4.88574 13.3572V13.7857C4.88574 13.8994 4.9309 14.0084 5.01127 14.0888C5.09164 14.1692 5.20065 14.2143 5.31431 14.2143H21.6C21.7137 14.2143 21.8227 14.1692 21.9031 14.0888C21.9834 14.0084 22.0286 13.8994 22.0286 13.7857V13.3572C22.0286 13.4708 21.9834 13.5799 21.9031 13.6602C21.8227 13.7406 21.7137 13.7857 21.6 13.7857Z" fill="#019C77"/>
<path d="M15.1714 14.2143H11.7428V10.7858H15.1714V14.2143Z" fill="#F0F0F0"/>
<path d="M15.1714 14.2143H11.7428V13.7858H15.1714V14.2143Z" fill="#D2D2D2"/>
<path d="M14.3142 10.7858H15.1714V14.2143H14.3142V10.7858ZM11.7428 10.7858H12.5999V14.2143H11.7428V10.7858Z" fill="#FFCD20"/>
<path d="M14.3142 13.7858H15.1714V14.2143H14.3142V13.7858ZM11.7428 13.7858H12.5999V14.2143H11.7428V13.7858Z" fill="#DC9600"/>
<path d="M15.1714 10.7858H15.6V14.2143H15.1714V10.7858Z" fill="#019C77"/>
<path d="M24.1714 7.35718H7.88572C7.77206 7.35718 7.66305 7.40233 7.58268 7.4827C7.50231 7.56308 7.45715 7.67208 7.45715 7.78575V10.3572C7.45715 10.4708 7.50231 10.5799 7.58268 10.6602C7.66305 10.7406 7.77206 10.7857 7.88572 10.7857H24.1714C24.2851 10.7857 24.3941 10.7406 24.4745 10.6602C24.5549 10.5799 24.6 10.4708 24.6 10.3572V7.78575C24.6 7.67208 24.5549 7.56308 24.4745 7.4827C24.3941 7.40233 24.2851 7.35718 24.1714 7.35718Z" fill="#02B88C"/>
<path d="M24.1714 10.3572H7.88572C7.77206 10.3572 7.66305 10.312 7.58268 10.2316C7.50231 10.1513 7.45715 10.0423 7.45715 9.92859V10.3572C7.45715 10.4708 7.50231 10.5798 7.58268 10.6602C7.66305 10.7406 7.77206 10.7857 7.88572 10.7857H24.1714C24.2851 10.7857 24.3941 10.7406 24.4745 10.6602C24.5549 10.5798 24.6 10.4708 24.6 10.3572V9.92859C24.6 10.0423 24.5549 10.1513 24.4745 10.2316C24.3941 10.312 24.2851 10.3572 24.1714 10.3572Z" fill="#019C77"/>
<path d="M14.3142 7.35718H17.7428V10.7857H14.3142V7.35718Z" fill="#F0F0F0"/>
<path d="M14.3142 10.3572H17.7428V10.7857H14.3142V10.3572Z" fill="#D2D2D2"/>
<path d="M15.1714 10.7857H14.3142V7.35718H15.1714V10.7857ZM17.7428 10.7857H16.8856V7.35718H17.7428V10.7857Z" fill="#FFCD20"/>
<path d="M15.1714 10.7857H14.3142V10.3572H15.1714V10.7857ZM17.7428 10.7857H16.8856V10.3572H17.7428V10.7857Z" fill="#DC9600"/>
<path d="M18.1714 10.7857H17.7428V7.35718H18.1714V10.7857Z" fill="#019C77"/>
<path d="M6.17137 3.92859H22.4571C22.5707 3.92859 22.6798 3.97374 22.7601 4.05411C22.8405 4.13449 22.8857 4.2435 22.8857 4.35716V6.92859C22.8857 7.04225 22.8405 7.15126 22.7601 7.23164C22.6798 7.31201 22.5707 7.35716 22.4571 7.35716H6.17137C6.05771 7.35716 5.9487 7.31201 5.86832 7.23164C5.78795 7.15126 5.7428 7.04225 5.7428 6.92859V4.35716C5.7428 4.2435 5.78795 4.13449 5.86832 4.05411C5.9487 3.97374 6.05771 3.92859 6.17137 3.92859Z" fill="#02B88C"/>
<path d="M22.4571 6.92857H6.17137C6.05771 6.92857 5.9487 6.88342 5.86832 6.80305C5.78795 6.72267 5.7428 6.61366 5.7428 6.5V6.92857C5.7428 7.04224 5.78795 7.15124 5.86832 7.23162C5.9487 7.31199 6.05771 7.35714 6.17137 7.35714H22.4571C22.5707 7.35714 22.6798 7.31199 22.7601 7.23162C22.8405 7.15124 22.8857 7.04224 22.8857 6.92857V6.5C22.8857 6.61366 22.8405 6.72267 22.7601 6.80305C22.6798 6.88342 22.5707 6.92857 22.4571 6.92857Z" fill="#019C77"/>
<path d="M16.0285 7.35716H12.6V3.92859H16.0285V7.35716Z" fill="#F0F0F0"/>
<path d="M16.0285 7.35716H12.6V6.92859H16.0285V7.35716Z" fill="#D2D2D2"/>
<path d="M15.1714 3.92859H16.0285V7.35716H15.1714V3.92859ZM12.6 3.92859H13.4571V7.35716H12.6V3.92859Z" fill="#FFCD20"/>
<path d="M15.1714 6.92859H16.0285V7.35716H15.1714V6.92859ZM12.6 6.92859H13.4571V7.35716H12.6V6.92859Z" fill="#DC9600"/>
<path d="M16.0286 3.92859H16.4571V7.35716H16.0286V3.92859Z" fill="#019C77"/>
<path d="M19.4571 4.57141C19.4003 4.57141 19.3457 4.59399 19.3056 4.63417C19.2654 4.67436 19.2428 4.72886 19.2428 4.7857C19.2428 4.84253 19.2654 4.89703 19.3056 4.93722C19.3457 4.97741 19.4003 4.99998 19.4571 4.99998H22.8857V4.57141H19.4571ZM17.7428 5.85713C17.686 5.85713 17.6315 5.8797 17.5913 5.91989C17.5511 5.96007 17.5285 6.01458 17.5285 6.07141C17.5285 6.12824 17.5511 6.18275 17.5913 6.22293C17.6315 6.26312 17.686 6.2857 17.7428 6.2857H22.8857V5.85713H17.7428ZM8.31423 4.57141H5.7428V4.99998H8.31423C8.37106 4.99998 8.42556 4.97741 8.46575 4.93722C8.50594 4.89703 8.52851 4.84253 8.52851 4.7857C8.52851 4.72886 8.50594 4.67436 8.46575 4.63417C8.42556 4.59399 8.37106 4.57141 8.31423 4.57141ZM10.0285 5.42855H5.7428V5.85713H10.0285C10.0853 5.85713 10.1398 5.83455 10.18 5.79436C10.2202 5.75418 10.2428 5.69967 10.2428 5.64284C10.2428 5.58601 10.2202 5.5315 10.18 5.49132C10.1398 5.45113 10.0853 5.42855 10.0285 5.42855Z" fill="#019C77"/>
<path d="M18.6 11.4286C18.5432 11.4286 18.4887 11.4512 18.4485 11.4914C18.4083 11.5315 18.3857 11.586 18.3857 11.6429C18.3857 11.6997 18.4083 11.7542 18.4485 11.7944C18.4887 11.8346 18.5432 11.8572 18.6 11.8572H22.0286V11.4286H18.6ZM16.8857 12.7143C16.8289 12.7143 16.7744 12.7369 16.7342 12.7771C16.694 12.8173 16.6715 12.8718 16.6715 12.9286C16.6715 12.9854 16.694 13.0399 16.7342 13.0801C16.7744 13.1203 16.8289 13.1429 16.8857 13.1429H22.0286V12.7143H16.8857ZM9.17146 11.4286H4.88574V11.8572H9.17146C9.22829 11.8572 9.28279 11.8346 9.32298 11.7944C9.36317 11.7542 9.38574 11.6997 9.38574 11.6429C9.38574 11.586 9.36317 11.5315 9.32298 11.4914C9.28279 11.4512 9.22829 11.4286 9.17146 11.4286Z" fill="#019C77"/>
<path d="M23.3143 0.5H7.02855C6.91488 0.5 6.80587 0.545153 6.7255 0.625526C6.64513 0.705898 6.59998 0.814907 6.59998 0.928571V3.5C6.59998 3.61366 6.64513 3.72267 6.7255 3.80305C6.80587 3.88342 6.91488 3.92857 7.02855 3.92857H23.3143C23.4279 3.92857 23.5369 3.88342 23.6173 3.80305C23.6977 3.72267 23.7428 3.61366 23.7428 3.5V0.928571C23.7428 0.814907 23.6977 0.705898 23.6173 0.625526C23.5369 0.545153 23.4279 0.5 23.3143 0.5Z" fill="#02B88C"/>
<path d="M23.3143 3.49998H7.02855C6.91488 3.49998 6.80587 3.45483 6.7255 3.37446C6.64513 3.29408 6.59998 3.18508 6.59998 3.07141V3.49998C6.59998 3.61365 6.64513 3.72266 6.7255 3.80303C6.80587 3.8834 6.91488 3.92855 7.02855 3.92855H23.3143C23.4279 3.92855 23.5369 3.8834 23.6173 3.80303C23.6977 3.72266 23.7428 3.61365 23.7428 3.49998V3.07141C23.7428 3.18508 23.6977 3.29408 23.6173 3.37446C23.5369 3.45483 23.4279 3.49998 23.3143 3.49998Z" fill="#019C77"/>
<path d="M13.4572 0.5H16.8857V3.92857H13.4572V0.5Z" fill="#F0F0F0"/>
<path d="M13.4572 3.5H16.8857V3.92857H13.4572V3.5Z" fill="#D2D2D2"/>
<path d="M14.3143 3.92857H13.4572V0.5H14.3143V3.92857ZM16.8857 3.92857H16.0286V0.5H16.8857V3.92857Z" fill="#FFCD20"/>
<path d="M14.3143 3.92857H13.4572V3.5H14.3143V3.92857ZM16.8857 3.92857H16.0286V3.5H16.8857V3.92857Z" fill="#DC9600"/>
<path d="M17.3143 3.92857H16.8857V0.5H17.3143V3.92857Z" fill="#019C77"/>
<path d="M10.0285 1.14282H6.59998V1.57139H10.0285C10.0854 1.57139 10.1399 1.54882 10.1801 1.50863C10.2203 1.46844 10.2428 1.41394 10.2428 1.35711C10.2428 1.30028 10.2203 1.24577 10.1801 1.20558C10.1399 1.1654 10.0854 1.14282 10.0285 1.14282ZM11.7428 2.42854H6.59998V2.85711H11.7428C11.7997 2.85711 11.8542 2.83453 11.8944 2.79435C11.9345 2.75416 11.9571 2.69965 11.9571 2.64282C11.9571 2.58599 11.9345 2.53149 11.8944 2.4913C11.8542 2.45111 11.7997 2.42854 11.7428 2.42854ZM21.1714 1.14282C21.1146 1.14282 21.0601 1.1654 21.0199 1.20558C20.9797 1.24577 20.9571 1.30028 20.9571 1.35711C20.9571 1.41394 20.9797 1.46844 21.0199 1.50863C21.0601 1.54882 21.1146 1.57139 21.1714 1.57139H23.7428V1.14282H21.1714ZM19.4571 1.99997C19.4003 1.99997 19.3458 2.02254 19.3056 2.06273C19.2654 2.10291 19.2428 2.15742 19.2428 2.21425C19.2428 2.27108 19.2654 2.32559 19.3056 2.36577C19.3458 2.40596 19.4003 2.42854 19.4571 2.42854H23.7428V1.99997H19.4571ZM10.8857 7.99997H7.45712V8.42854H10.8857C10.9425 8.42854 10.997 8.40596 11.0372 8.36577C11.0774 8.32559 11.1 8.27108 11.1 8.21425C11.1 8.15742 11.0774 8.10291 11.0372 8.06273C10.997 8.02254 10.9425 7.99997 10.8857 7.99997ZM13.0285 9.28568H7.45712V9.71425H13.0285C13.0854 9.71425 13.1399 9.69167 13.1801 9.65149C13.2203 9.6113 13.2428 9.5568 13.2428 9.49997C13.2428 9.44313 13.2203 9.38863 13.1801 9.34844C13.1399 9.30826 13.0854 9.28568 13.0285 9.28568ZM22.0285 7.99997C21.9717 7.99997 21.9172 8.02254 21.877 8.06273C21.8368 8.10291 21.8143 8.15742 21.8143 8.21425C21.8143 8.27108 21.8368 8.32559 21.877 8.36577C21.9172 8.40596 21.9717 8.42854 22.0285 8.42854H24.6V7.99997H22.0285ZM20.3143 9.28568C20.2574 9.28568 20.2029 9.30826 20.1627 9.34844C20.1226 9.38863 20.1 9.44313 20.1 9.49997C20.1 9.5568 20.1226 9.6113 20.1627 9.65149C20.2029 9.69167 20.2574 9.71425 20.3143 9.71425H24.6V9.28568H20.3143ZM10.8857 14.8571H7.45712V15.2857H10.8857C10.9425 15.2857 10.997 15.2631 11.0372 15.2229C11.0774 15.1827 11.1 15.1282 11.1 15.0714C11.1 15.0146 11.0774 14.9601 11.0372 14.9199C10.997 14.8797 10.9425 14.8571 10.8857 14.8571ZM12.6 16.1428H7.45712V16.5714H12.6C12.6568 16.5714 12.7113 16.5488 12.7515 16.5086C12.7917 16.4684 12.8143 16.4139 12.8143 16.3571C12.8143 16.3003 12.7917 16.2458 12.7515 16.2056C12.7113 16.1654 12.6568 16.1428 12.6 16.1428ZM22.0285 14.8571C21.9717 14.8571 21.9172 14.8797 21.877 14.9199C21.8368 14.9601 21.8143 15.0146 21.8143 15.0714C21.8143 15.1282 21.8368 15.1827 21.877 15.2229C21.9172 15.2631 21.9717 15.2857 22.0285 15.2857H24.6V14.8571H22.0285ZM20.3143 16.1428C20.2574 16.1428 20.2029 16.1654 20.1627 16.2056C20.1226 16.2458 20.1 16.3003 20.1 16.3571C20.1 16.4139 20.1226 16.4684 20.1627 16.5086C20.2029 16.5488 20.2574 16.5714 20.3143 16.5714H24.6V16.1428H20.3143Z" fill="#019C77"/>
<path d="M9.60003 8.21433C9.60003 6.07062 8.02589 4.29462 5.97046 3.97876C5.90172 4.01521 5.84421 4.0697 5.80412 4.13637C5.76402 4.20305 5.74285 4.27939 5.74289 4.35719V6.92862C5.74289 7.04228 5.78804 7.15129 5.86841 7.23166C5.94878 7.31204 6.05779 7.35719 6.17146 7.35719H7.88574C7.77208 7.35719 7.66307 7.40234 7.5827 7.48271C7.50232 7.56309 7.45717 7.6721 7.45717 7.78576V10.3572C7.45717 10.4709 7.50232 10.5799 7.5827 10.6602C7.66307 10.7406 7.77208 10.7858 7.88574 10.7858H5.31431C5.20065 10.7858 5.09164 10.8309 5.01127 10.9113C4.9309 10.9917 4.88574 11.1007 4.88574 11.2143V12.4786C5.02674 12.4928 5.16946 12.5 5.31431 12.5C7.68131 12.5 9.60003 10.5813 9.60003 8.21433ZM9.60003 17.2143V16.3572C9.60003 16.2435 9.55488 16.1345 9.4745 16.0541C9.39413 15.9738 9.28512 15.9286 9.17146 15.9286H10.0286C10.1423 15.9286 10.2513 15.8835 10.3316 15.8031C10.412 15.7227 10.4572 15.6137 10.4572 15.5V14.6429C10.4572 14.5292 10.412 14.4202 10.3316 14.3399C10.2513 14.2595 10.1423 14.2143 10.0286 14.2143H9.17146C9.28512 14.2143 9.39413 14.1692 9.4745 14.0888C9.55488 14.0084 9.60003 13.8994 9.60003 13.7858V12.9286C9.60003 12.815 9.55488 12.7059 9.4745 12.6256C9.39413 12.5452 9.28512 12.5 9.17146 12.5H4.88574V13.7858C4.88574 13.8994 4.9309 14.0084 5.01127 14.0888C5.09164 14.1692 5.20065 14.2143 5.31431 14.2143H7.88574C7.77208 14.2143 7.66307 14.2595 7.5827 14.3399C7.50232 14.4202 7.45717 14.5292 7.45717 14.6429V17.2143C7.45717 17.328 7.50232 17.437 7.5827 17.5174C7.66307 17.5978 7.77208 17.6429 7.88574 17.6429H9.17146C9.28512 17.6429 9.39413 17.5978 9.4745 17.5174C9.55488 17.437 9.60003 17.328 9.60003 17.2143Z" fill="#019C77"/>
<path d="M4.88569 12.5C7.25262 12.5 9.1714 10.5812 9.1714 8.2143C9.1714 5.84737 7.25262 3.92859 4.88569 3.92859C2.51876 3.92859 0.599976 5.84737 0.599976 8.2143C0.599976 10.5812 2.51876 12.5 4.88569 12.5Z" fill="#DC9600"/>
<path d="M4.88572 11.6429C6.77927 11.6429 8.3143 10.1079 8.3143 8.21434C8.3143 6.32079 6.77927 4.78577 4.88572 4.78577C2.99218 4.78577 1.45715 6.32079 1.45715 8.21434C1.45715 10.1079 2.99218 11.6429 4.88572 11.6429Z" fill="#FFCD20"/>
<path d="M4.88569 7.78566C4.64955 7.78566 4.45712 7.59323 4.45712 7.35709C4.45712 7.12095 4.64955 6.92852 4.88569 6.92852H5.74283C5.8565 6.92852 5.96551 6.88337 6.04588 6.80299C6.12625 6.72262 6.1714 6.61361 6.1714 6.49995C6.1714 6.38628 6.12625 6.27727 6.04588 6.1969C5.96551 6.11653 5.8565 6.07138 5.74283 6.07138H5.31426V5.6428C5.31426 5.52914 5.26911 5.42013 5.18874 5.33976C5.10836 5.25939 4.99935 5.21423 4.88569 5.21423C4.77203 5.21423 4.66302 5.25939 4.58264 5.33976C4.50227 5.42013 4.45712 5.52914 4.45712 5.6428V6.14509C4.20661 6.23392 3.98974 6.39811 3.83628 6.61511C3.68281 6.83212 3.60026 7.0913 3.59998 7.35709C3.59998 8.06595 4.17683 8.6428 4.88569 8.6428C5.12183 8.6428 5.31426 8.83523 5.31426 9.07138C5.31426 9.30752 5.12183 9.49995 4.88569 9.49995H4.02855C3.91488 9.49995 3.80587 9.5451 3.7255 9.62547C3.64513 9.70585 3.59998 9.81486 3.59998 9.92852C3.59998 10.0422 3.64513 10.1512 3.7255 10.2316C3.80587 10.3119 3.91488 10.3571 4.02855 10.3571H4.45712V10.7857C4.45712 10.8993 4.50227 11.0083 4.58264 11.0887C4.66302 11.1691 4.77203 11.2142 4.88569 11.2142C4.99935 11.2142 5.10836 11.1691 5.18874 11.0887C5.26911 11.0083 5.31426 10.8993 5.31426 10.7857V10.2834C5.56477 10.1945 5.78164 10.0304 5.9351 9.81335C6.08857 9.59635 6.17112 9.33716 6.1714 9.07138C6.1714 8.36252 5.59455 7.78566 4.88569 7.78566Z" fill="#DC9600"/>
<path d="M8.74283 14.2143H1.02855C0.914883 14.2143 0.805874 14.1691 0.725501 14.0888C0.645129 14.0084 0.599976 13.8994 0.599976 13.7857V12.9286C0.599976 12.8149 0.645129 12.7059 0.725501 12.6255C0.805874 12.5452 0.914883 12.5 1.02855 12.5H8.74283C8.8565 12.5 8.96551 12.5452 9.04588 12.6255C9.12625 12.7059 9.1714 12.8149 9.1714 12.9286V13.7857C9.1714 13.8994 9.12625 14.0084 9.04588 14.0888C8.96551 14.1691 8.8565 14.2143 8.74283 14.2143ZM8.74283 17.6429H1.02855C0.914883 17.6429 0.805874 17.5977 0.725501 17.5173C0.645129 17.437 0.599976 17.328 0.599976 17.2143V16.3571C0.599976 16.2435 0.645129 16.1345 0.725501 16.0541C0.805874 15.9737 0.914883 15.9286 1.02855 15.9286H8.74283C8.8565 15.9286 8.96551 15.9737 9.04588 16.0541C9.12625 16.1345 9.1714 16.2435 9.1714 16.3571V17.2143C9.1714 17.328 9.12625 17.437 9.04588 17.5173C8.96551 17.5977 8.8565 17.6429 8.74283 17.6429Z" fill="#FFCD20"/>
<path d="M9.60001 15.9285H1.88572C1.77206 15.9285 1.66305 15.8834 1.58268 15.803C1.50231 15.7226 1.45715 15.6136 1.45715 15.4999V14.6428C1.45715 14.5291 1.50231 14.4201 1.58268 14.3398C1.66305 14.2594 1.77206 14.2142 1.88572 14.2142H9.60001C9.71367 14.2142 9.82268 14.2594 9.90306 14.3398C9.98343 14.4201 10.0286 14.5291 10.0286 14.6428V15.4999C10.0286 15.6136 9.98343 15.7226 9.90306 15.803C9.82268 15.8834 9.71367 15.9285 9.60001 15.9285Z" fill="#DC9600"/>
</svg>
