<svg width="105" height="81" viewBox="0 0 105 81" fill="none" xmlns="http://www.w3.org/2000/svg">
<path d="M3.27235 6.70801H101.504C103.148 6.70801 104.488 8.04294 104.488 9.69252V77.2158C104.488 78.8606 103.153 80.2003 101.504 80.2003H3.27235C1.62754 80.2003 0.287842 78.8653 0.287842 77.2158V9.69252C0.287842 8.0477 1.62277 6.70801 3.27235 6.70801Z" fill="#CFF1E3"/>
<path d="M15.1961 12.882C14.3523 12.882 13.6705 12.2669 13.6705 11.5041V1.57803C13.6705 0.819988 14.3523 0.200195 15.1961 0.200195C16.0352 0.200195 16.7218 0.81522 16.7218 1.57803V11.5041C16.7218 12.2622 16.04 12.882 15.1961 12.882Z" fill="#FF0000"/>
<path d="M39.9875 12.882C39.1484 12.882 38.4619 12.2669 38.4619 11.5041V1.57803C38.4619 0.819988 39.1437 0.200195 39.9875 0.200195C40.8266 0.200195 41.5084 0.81522 41.5084 1.57803V11.5041C41.5084 12.2622 40.8266 12.882 39.9875 12.882Z" fill="#FF0000"/>
<path d="M64.7837 12.882C63.9446 12.882 63.2581 12.2669 63.2581 11.5041V1.57803C63.2581 0.819988 63.9398 0.200195 64.7837 0.200195C65.6228 0.200195 66.3093 0.81522 66.3093 1.57803V11.5041C66.3093 12.2622 65.6275 12.882 64.7837 12.882Z" fill="#FF0000"/>
<path d="M89.5799 12.882C88.7408 12.882 88.0543 12.2669 88.0543 11.5041V1.57803C88.0543 0.819988 88.7361 0.200195 89.5799 0.200195C90.4238 0.200195 91.1056 0.81522 91.1056 1.57803V11.5041C91.1056 12.2622 90.4238 12.882 89.5799 12.882Z" fill="#FF0000"/>
<path d="M15.4821 23.1465H9.18415C8.63384 23.1465 8.18774 23.5926 8.18774 24.1429V30.0452C8.18774 30.5955 8.63384 31.0416 9.18415 31.0416H15.4821C16.0324 31.0416 16.4786 30.5955 16.4786 30.0452V24.1429C16.4786 23.5926 16.0324 23.1465 15.4821 23.1465Z" fill="#97E2C3"/>
<path d="M28.8314 23.1465H22.5334C21.9831 23.1465 21.537 23.5926 21.537 24.1429V30.0452C21.537 30.5955 21.9831 31.0416 22.5334 31.0416H28.8314C29.3817 31.0416 29.8278 30.5955 29.8278 30.0452V24.1429C29.8278 23.5926 29.3817 23.1465 28.8314 23.1465Z" fill="#97E2C3"/>
<path d="M42.1854 23.1465H35.8874C35.3371 23.1465 34.891 23.5926 34.891 24.1429V30.0452C34.891 30.5955 35.3371 31.0416 35.8874 31.0416H42.1854C42.7357 31.0416 43.1818 30.5955 43.1818 30.0452V24.1429C43.1818 23.5926 42.7357 23.1465 42.1854 23.1465Z" fill="#97E2C3"/>
<path d="M55.5346 23.1465H49.2366C48.6863 23.1465 48.2402 23.5926 48.2402 24.1429V30.0452C48.2402 30.5955 48.6863 31.0416 49.2366 31.0416H55.5346C56.0849 31.0416 56.5311 30.5955 56.5311 30.0452V24.1429C56.5311 23.5926 56.0849 23.1465 55.5346 23.1465Z" fill="#97E2C3"/>
<path d="M62.5907 23.1465H68.8838C69.4369 23.1465 69.8803 23.5946 69.8803 24.1429V30.0404C69.8803 30.5934 69.4321 31.0416 68.8791 31.0416H62.5859C62.0328 31.0416 61.5895 30.5934 61.5895 30.0452V24.1477C61.5895 23.5946 62.0376 23.1513 62.5859 23.1513L62.5907 23.1465Z" fill="#97E2C3"/>
<path d="M82.2377 23.1465H75.9398C75.3895 23.1465 74.9434 23.5926 74.9434 24.1429V30.0452C74.9434 30.5955 75.3895 31.0416 75.9398 31.0416H82.2377C82.788 31.0416 83.2342 30.5955 83.2342 30.0452V24.1429C83.2342 23.5926 82.788 23.1465 82.2377 23.1465Z" fill="#97E2C3"/>
<path d="M95.5917 23.1465H89.2938C88.7435 23.1465 88.2974 23.5926 88.2974 24.1429V30.0452C88.2974 30.5955 88.7435 31.0416 89.2938 31.0416H95.5917C96.142 31.0416 96.5882 30.5955 96.5882 30.0452V24.1429C96.5882 23.5926 96.142 23.1465 95.5917 23.1465Z" fill="#97E2C3"/>
<path d="M15.4774 37.0488H9.18892C8.63598 37.0488 8.18774 37.4971 8.18774 38.05V43.9427C8.18774 44.4957 8.63598 44.9439 9.18892 44.9439H15.4774C16.0303 44.9439 16.4786 44.4957 16.4786 43.9427V38.05C16.4786 37.4971 16.0303 37.0488 15.4774 37.0488Z" fill="#97E2C3"/>
<path d="M28.8266 37.0488H22.5382C21.9852 37.0488 21.537 37.4971 21.537 38.05V43.9427C21.537 44.4957 21.9852 44.9439 22.5382 44.9439H28.8266C29.3796 44.9439 29.8278 44.4957 29.8278 43.9427V38.05C29.8278 37.4971 29.3796 37.0488 28.8266 37.0488Z" fill="#97E2C3"/>
<path d="M42.1806 37.0488H35.8922C35.3392 37.0488 34.891 37.4971 34.891 38.05V43.9427C34.891 44.4957 35.3392 44.9439 35.8922 44.9439H42.1806C42.7335 44.9439 43.1818 44.4957 43.1818 43.9427V38.05C43.1818 37.4971 42.7335 37.0488 42.1806 37.0488Z" fill="#97E2C3"/>
<path d="M55.5298 37.0488H49.2414C48.6885 37.0488 48.2402 37.4971 48.2402 38.05V43.9427C48.2402 44.4957 48.6885 44.9439 49.2414 44.9439H55.5298C56.0828 44.9439 56.5311 44.4957 56.5311 43.9427V38.05C56.5311 37.4971 56.0828 37.0488 55.5298 37.0488Z" fill="#97E2C3"/>
<path d="M62.5905 37.0488H68.8837C69.4367 37.0488 69.8802 37.497 69.8802 38.0453V43.9427C69.8802 44.4958 69.432 44.9392 68.8837 44.9392H62.5905C62.0375 44.9392 61.5941 44.491 61.5941 43.9427V38.0453C61.5941 37.4922 62.0423 37.0488 62.5905 37.0488Z" fill="#97E2C3"/>
<path d="M82.233 37.0488H75.9445C75.3916 37.0488 74.9434 37.4971 74.9434 38.05V43.9427C74.9434 44.4957 75.3916 44.9439 75.9445 44.9439H82.233C82.7859 44.9439 83.2342 44.4957 83.2342 43.9427V38.05C83.2342 37.4971 82.7859 37.0488 82.233 37.0488Z" fill="#97E2C3"/>
<path d="M95.587 37.0488H89.2985C88.7456 37.0488 88.2974 37.4971 88.2974 38.05V43.9427C88.2974 44.4957 88.7456 44.9439 89.2985 44.9439H95.587C96.1399 44.9439 96.5882 44.4957 96.5882 43.9427V38.05C96.5882 37.4971 96.1399 37.0488 95.587 37.0488Z" fill="#97E2C3"/>
<path d="M15.4821 50.9509H9.18415C8.63384 50.9509 8.18774 51.397 8.18774 51.9474V57.8496C8.18774 58.3999 8.63384 58.846 9.18415 58.846H15.4821C16.0324 58.846 16.4786 58.3999 16.4786 57.8496V51.9474C16.4786 51.397 16.0324 50.9509 15.4821 50.9509Z" fill="#97E2C3"/>
<path d="M28.8314 50.9509H22.5334C21.9831 50.9509 21.537 51.397 21.537 51.9474V57.8496C21.537 58.3999 21.9831 58.846 22.5334 58.846H28.8314C29.3817 58.846 29.8278 58.3999 29.8278 57.8496V51.9474C29.8278 51.397 29.3817 50.9509 28.8314 50.9509Z" fill="#97E2C3"/>
<path d="M42.1854 50.9509H35.8874C35.3371 50.9509 34.891 51.397 34.891 51.9474V57.8496C34.891 58.3999 35.3371 58.846 35.8874 58.846H42.1854C42.7357 58.846 43.1818 58.3999 43.1818 57.8496V51.9474C43.1818 51.397 42.7357 50.9509 42.1854 50.9509Z" fill="#97E2C3"/>
<path d="M55.5346 50.9509H49.2366C48.6863 50.9509 48.2402 51.397 48.2402 51.9474V57.8496C48.2402 58.3999 48.6863 58.846 49.2366 58.846H55.5346C56.0849 58.846 56.5311 58.3999 56.5311 57.8496V51.9474C56.5311 51.397 56.0849 50.9509 55.5346 50.9509Z" fill="#97E2C3"/>
<path d="M62.5905 50.9509H68.8837C69.4367 50.9509 69.8802 51.3991 69.8802 51.9474V57.8448C69.8802 58.3979 69.432 58.8413 68.8837 58.8413H62.5905C62.0375 58.8413 61.5941 58.3931 61.5941 57.8448V51.9474C61.5941 51.3943 62.0423 50.9509 62.5905 50.9509Z" fill="#97E2C3"/>
<path d="M82.2377 50.9509H75.9398C75.3895 50.9509 74.9434 51.397 74.9434 51.9474V57.8496C74.9434 58.3999 75.3895 58.846 75.9398 58.846H82.2377C82.788 58.846 83.2342 58.3999 83.2342 57.8496V51.9474C83.2342 51.397 82.788 50.9509 82.2377 50.9509Z" fill="#97E2C3"/>
<path d="M95.5917 50.9509H89.2938C88.7435 50.9509 88.2974 51.397 88.2974 51.9474V57.8496C88.2974 58.3999 88.7435 58.846 89.2938 58.846H95.5917C96.142 58.846 96.5882 58.3999 96.5882 57.8496V51.9474C96.5882 51.397 96.142 50.9509 95.5917 50.9509Z" fill="#97E2C3"/>
<path d="M15.4821 64.8533H9.18415C8.63384 64.8533 8.18774 65.2994 8.18774 65.8497V71.752C8.18774 72.3023 8.63384 72.7484 9.18415 72.7484H15.4821C16.0324 72.7484 16.4786 72.3023 16.4786 71.752V65.8497C16.4786 65.2994 16.0324 64.8533 15.4821 64.8533Z" fill="#97E2C3"/>
<path d="M28.8314 64.8533H22.5334C21.9831 64.8533 21.537 65.2994 21.537 65.8497V71.752C21.537 72.3023 21.9831 72.7484 22.5334 72.7484H28.8314C29.3817 72.7484 29.8278 72.3023 29.8278 71.752V65.8497C29.8278 65.2994 29.3817 64.8533 28.8314 64.8533Z" fill="#97E2C3"/>
<path d="M42.1854 64.8533H35.8874C35.3371 64.8533 34.891 65.2994 34.891 65.8497V71.752C34.891 72.3023 35.3371 72.7484 35.8874 72.7484H42.1854C42.7357 72.7484 43.1818 72.3023 43.1818 71.752V65.8497C43.1818 65.2994 42.7357 64.8533 42.1854 64.8533Z" fill="#97E2C3"/>
<path d="M55.5346 64.8533H49.2366C48.6863 64.8533 48.2402 65.2994 48.2402 65.8497V71.752C48.2402 72.3023 48.6863 72.7484 49.2366 72.7484H55.5346C56.0849 72.7484 56.5311 72.3023 56.5311 71.752V65.8497C56.5311 65.2994 56.0849 64.8533 55.5346 64.8533Z" fill="#97E2C3"/>
<path d="M62.5905 64.8533H68.8837C69.4367 64.8533 69.8802 65.3014 69.8802 65.8497V71.7472C69.8802 72.3002 69.432 72.7436 68.8837 72.7436H62.5905C62.0375 72.7436 61.5941 72.2955 61.5941 71.7472V65.8497C61.5941 65.2967 62.0423 64.8533 62.5905 64.8533Z" fill="#97E2C3"/>
<path d="M82.2377 64.8533H75.9398C75.3895 64.8533 74.9434 65.2994 74.9434 65.8497V71.752C74.9434 72.3023 75.3895 72.7484 75.9398 72.7484H82.2377C82.788 72.7484 83.2342 72.3023 83.2342 71.752V65.8497C83.2342 65.2994 82.788 64.8533 82.2377 64.8533Z" fill="#97E2C3"/>
<path d="M95.5917 64.8533H89.2938C88.7435 64.8533 88.2974 65.2994 88.2974 65.8497V71.752C88.2974 72.3023 88.7435 72.7484 89.2938 72.7484H95.5917C96.142 72.7484 96.5882 72.3023 96.5882 71.752V65.8497C96.5882 65.2994 96.142 64.8533 95.5917 64.8533Z" fill="#97E2C3"/>
<path d="M65.7372 61.6304C62.0232 61.6304 59.0054 58.6125 59.0054 54.8986C59.0054 51.1846 62.0232 48.1667 65.7372 48.1667C69.4511 48.1667 72.469 51.1846 72.469 54.8986C72.469 58.6125 69.4511 61.6304 65.7372 61.6304ZM65.7372 49.3539C62.6812 49.3539 60.1925 51.8426 60.1925 54.8986C60.1925 57.9546 62.6812 60.4433 65.7372 60.4433C68.7932 60.4433 71.2819 57.9546 71.2819 54.8986C71.2819 51.8426 68.7932 49.3539 65.7372 49.3539Z" fill="#201AD9"/>
</svg>
