<svg width="1280" height="126" viewBox="0 0 1280 126" fill="none" xmlns="http://www.w3.org/2000/svg">
<path d="M1280 44.9121C1280 44.9121 1247.04 64.3266 1216.79 65.6811C1186.09 67.0356 1159.9 65.6811 1122.43 58.9086C1071.41 49.8786 972.981 13.3072 920.607 33.1731C868.233 53.0391 865.975 53.9421 839.337 66.5841C809.538 81.032 749.037 109.928 674.088 108.573C594.173 107.219 449.242 33.6246 389.644 37.2366C383.323 37.6881 359.845 40.8486 342.236 46.2666C325.079 51.6846 299.795 63.4236 265.481 67.4871C251.034 69.2931 228.007 72.4536 201.369 71.5506C194.596 71.0991 172.924 69.7446 147.189 64.3266C121.453 58.9086 97.5238 50.3301 75.8519 47.6211C29.3474 42.6546 0 49.8786 0 49.8786V1.1167H1280V44.9121ZM1177.51 52.1361C1174.35 47.6211 1168.48 50.3301 1158.1 50.3301C1147.71 50.3301 1130.55 44.9121 1131.91 45.3636C1133.26 45.8151 1145.9 52.1361 1159 53.9421C1172.54 56.1996 1180.22 56.6511 1177.51 52.1361ZM1094.43 39.9456C1094.43 39.9456 1083.6 39.0426 1069.15 35.8821C1054.7 32.2701 1022.65 23.2402 1000.97 20.0797C963.951 15.1132 929.637 20.0797 932.797 20.5312C936.409 20.9827 976.141 17.8222 1012.26 25.4977C1027.16 28.6581 1054.25 35.4306 1068.25 37.6881C1083.15 40.3971 1094.43 39.9456 1094.43 39.9456ZM836.176 39.4941C843.852 36.3336 776.127 60.7146 752.649 67.0356C743.168 69.7446 724.656 74.2596 707.499 76.0656C689.891 77.8716 667.316 77.8716 667.767 78.3231C667.767 79.226 693.954 81.935 718.335 78.3231C742.716 74.7111 741.813 73.3566 752.649 71.0991C769.806 67.4871 828.501 42.6546 836.176 39.4941ZM898.935 32.2701C899.838 32.2701 895.323 30.4641 877.263 37.2366C859.203 44.0091 847.012 53.0391 846.109 53.9421C845.206 54.3936 861.912 45.8151 875.908 40.3971C889.453 34.9791 898.483 32.2701 898.935 32.2701ZM1277.74 28.2066C1277.29 28.6581 1269.16 33.1731 1256.07 39.4941C1242.98 45.8151 1224.92 52.1361 1225.82 51.6846C1226.72 51.6846 1241.62 48.9756 1259.23 40.3971C1276.84 31.8186 1278.19 27.7551 1277.74 28.2066ZM141.319 53.4906C141.771 52.5876 132.741 52.5876 121.002 48.0726C109.263 43.5576 96.6208 40.8486 85.7848 39.0426C67.7249 35.4306 32.9594 39.4941 34.7654 39.9456C36.1199 40.3971 71.7884 38.5911 91.2028 43.1061C101.136 45.3636 102.039 45.3636 116.938 50.3301C131.838 55.2966 140.868 54.8451 141.319 53.4906ZM329.594 42.6546C331.4 42.2031 345.397 35.4306 367.52 30.9156C389.644 25.9492 407.704 28.6581 407.704 27.3036C407.704 25.9492 403.189 23.2402 379.711 25.9492C356.233 28.6581 327.788 43.1061 329.594 42.6546ZM323.273 31.3671C324.176 31.8186 338.624 25.4977 349.009 23.6917C359.393 22.3372 357.587 21.4342 357.587 20.9827C357.587 20.5312 352.621 20.0797 345.397 21.8857C337.721 24.1432 322.37 30.9156 323.273 31.3671ZM422.603 20.9827C423.055 21.8857 438.406 24.5947 447.887 29.1096C457.369 33.6246 456.014 31.8186 456.466 31.3671C456.917 30.9156 452.854 27.7551 445.63 25.4977C438.406 22.7887 422.152 20.0797 422.603 20.9827ZM295.28 51.2331C294.829 52.5876 296.635 53.4906 303.859 50.3301C311.083 47.1696 315.598 44.4606 313.792 44.9121C311.986 45.3636 309.728 46.7181 302.504 48.5241C294.829 50.3301 295.732 49.8786 295.28 51.2331ZM155.767 57.1026C154.864 57.1026 165.249 60.7146 170.667 61.1661C176.085 61.6176 179.697 61.6176 179.697 60.2631C179.697 58.9086 179.245 58.0056 172.473 58.4571C165.249 58.9086 156.67 57.1026 155.767 57.1026ZM687.182 96.383C686.73 96.8345 676.346 95.0285 653.319 95.0285C630.744 95.0285 591.915 84.1925 575.661 79.226C559.407 74.2596 620.811 96.8345 650.159 97.7375C679.506 98.6405 687.633 95.9315 687.182 96.383Z" fill="#201AD9"/>
<path d="M1217.24 81.3865C1216.79 80.935 1196.47 82.741 1184.73 81.3865C1151.77 78.226 1107.98 66.9386 1109.78 68.2931C1111.59 69.6476 1171.64 82.2895 1186.54 83.1925C1208.66 84.9985 1217.69 81.3865 1217.24 81.3865Z" fill="#201AD9"/>
<path d="M1026.71 44.3636C1025.81 43.9121 1006.39 39.8486 983.817 38.9456C961.242 38.0426 926.476 41.6546 928.282 41.2031C929.637 40.7516 954.921 33.0761 988.332 35.7851C1021.74 38.4941 1027.61 44.8151 1026.71 44.3636Z" fill="#201AD9"/>
<path d="M923.316 60.6176C922.864 60.1661 932.346 56.1026 937.764 55.6511C943.182 55.1996 946.794 55.6511 946.794 57.0056C946.794 58.3601 946.342 59.2631 939.57 58.8116C931.894 58.3601 923.767 61.0691 923.316 60.6176Z" fill="#201AD9"/>
<path d="M907.513 47.9756C907.513 47.5241 887.647 53.3936 879.069 57.9086C870.49 61.9721 851.076 71.9051 851.527 71.9051C851.979 72.3566 870.49 64.6811 879.972 60.1661C889.453 55.6511 907.513 48.4271 907.513 47.9756Z" fill="#201AD9"/>
<path d="M697.566 120.667C697.115 120.215 676.797 122.021 665.058 120.667C632.099 117.506 588.303 106.219 590.109 107.573C591.915 108.928 651.965 121.57 666.864 122.473C688.988 124.279 698.018 121.118 697.566 120.667Z" fill="#201AD9"/>
<path d="M189.178 87.256C189.178 87.256 194.596 85.9015 202.272 86.8045C209.947 87.7075 228.459 90.868 239.294 89.965C258.257 88.159 272.705 77.7746 270.899 78.2261C269.093 78.2261 251.485 88.159 232.071 86.8045C223.944 86.353 209.044 84.547 201.82 84.9985C194.596 85.45 189.178 87.256 189.178 87.256Z" fill="#201AD9"/>
<path d="M340.882 57.0056C341.785 57.4571 349.912 53.3936 360.296 52.0391C370.681 51.1361 369.778 50.6846 369.778 49.7816C369.778 49.3301 361.651 47.9756 354.427 49.7816C347.203 52.0391 339.979 56.5541 340.882 57.0056Z" fill="#201AD9"/>
<path d="M70.4338 59.7146C70.4338 59.2631 89.8483 59.7146 100.684 61.9721C111.52 64.2296 123.259 70.5506 123.259 71.0021C123.259 71.4536 111.069 67.3901 100.233 64.6811C89.8483 61.9721 70.8853 60.1661 70.4338 59.7146Z" fill="#201AD9"/>
</svg>
