<svg width="1280" height="205" viewBox="0 0 1280 205" fill="none" xmlns="http://www.w3.org/2000/svg">
<path fill-rule="evenodd" clip-rule="evenodd" d="M0 204.833H1280V122.833V121.833V79.0381C1280 79.0381 1247.04 59.6236 1216.79 58.2691C1186.09 56.9146 1159.9 58.2691 1122.43 65.0416C1109.32 67.3621 1093.08 71.5012 1075.29 76.034C1023.86 89.1404 959.522 105.538 920.607 90.7771C868.233 70.9111 865.975 70.0081 839.337 57.3661C809.538 42.9182 749.037 14.0222 674.088 15.3767C633.364 16.0669 575.756 35.5167 521.161 53.9494C468.621 71.6881 418.871 88.4849 389.644 86.7136C383.323 86.2621 359.845 83.1016 342.236 77.6836C338.191 76.4061 333.694 74.7771 328.733 72.9802C312.654 67.1564 291.704 59.5685 265.481 56.4631C264.658 56.3602 263.807 56.2529 262.93 56.1423C248.398 54.3102 226.49 51.5481 201.369 52.3996L200.896 52.4311C193.632 52.9133 172.353 54.3259 147.189 59.6236C136.658 61.8406 126.43 64.5868 116.535 67.2435C102.248 71.0793 88.6559 74.7286 75.8519 76.3291C29.3474 81.2956 0 74.0716 0 74.0716V121.833V122.833V204.833ZM1166.5 74.105C1171.86 74.6054 1175.33 74.9297 1177.51 71.8141C1180.22 67.2991 1172.54 67.7506 1159 70.0081C1148.01 71.5242 1137.33 76.2222 1133.39 77.9584C1132.63 78.2904 1132.13 78.5141 1131.91 78.5866C1131.75 78.6408 1131.85 78.6104 1132.18 78.5149C1134.58 77.8152 1148.96 73.6201 1158.1 73.6201C1161.31 73.6201 1164.1 73.8803 1166.5 74.105ZM1069.15 88.0681C1083.6 84.9076 1094.43 84.0046 1094.43 84.0046C1094.43 84.0046 1083.15 83.5531 1068.25 86.2621C1059.13 87.7329 1044.45 91.1205 1031.21 94.1769L1031.2 94.1776L1031.2 94.1788C1024.12 95.8126 1017.45 97.3517 1012.26 98.4525C983.397 104.586 952.226 103.8 939.025 103.467C935.706 103.383 933.523 103.328 932.797 103.419C929.637 103.871 963.951 108.837 1000.97 103.871C1018.2 101.358 1042 95.1345 1058.29 90.874L1058.3 90.8708L1058.31 90.8693C1062.5 89.7732 1066.19 88.8072 1069.15 88.0681ZM821.989 79.7235C832.449 83.3417 838.835 85.5507 836.176 84.4561C835.451 84.1574 834.27 83.6653 832.712 83.0158C817.779 76.7921 768.185 56.1218 752.649 52.8511C749.065 52.1046 746.766 51.4567 744.411 50.7934C739.645 49.4509 734.653 48.0446 718.335 45.6271C693.954 42.0152 667.767 44.7242 667.767 45.6271C667.595 45.7997 670.787 45.9064 675.781 46.0731L675.782 46.0732C683.851 46.3426 696.622 46.7691 707.499 47.8846C724.656 49.6906 743.168 54.2056 752.649 56.9146C767.995 61.0462 802.244 72.8934 821.986 79.7223L821.989 79.7235ZM877.263 86.7136C895.323 93.4861 899.838 91.6801 898.935 91.6801C898.483 91.6801 889.453 88.9711 875.908 83.5531C862.661 78.4252 846.988 70.4662 846.113 70.0114C847.041 70.9326 859.224 79.9491 877.263 86.7136ZM1256.07 84.4561C1269.16 90.7771 1277.29 95.292 1277.74 95.7435C1278.19 96.195 1276.84 92.1316 1259.23 83.5531C1242.04 75.1803 1227.44 72.3989 1225.91 72.2703C1227.48 72.7196 1243.91 78.5878 1256.07 84.4561ZM137.996 71.4128C140.256 71.022 141.493 70.808 141.319 70.4596C140.868 69.1051 131.838 68.6536 116.938 73.6201C103.699 78.0333 101.511 78.5249 94.2184 80.1636C93.3041 80.3691 92.3095 80.5926 91.2028 80.8441C76.4322 84.2791 52.2535 84.0554 40.9352 83.9507H40.9351H40.935C37.3766 83.9177 35.0894 83.8966 34.7654 84.0046C32.9594 84.4561 67.7249 88.5196 85.7848 84.9076C96.6208 83.1016 109.263 80.3926 121.002 75.8776C128.211 73.1048 134.399 72.0349 137.996 71.4128ZM332.119 82.2607C330.809 81.7309 329.957 81.3861 329.594 81.2956C327.788 80.8441 356.233 95.292 379.711 98.001C403.189 100.71 407.704 98.001 407.704 96.6465C407.704 96.1851 405.608 96.1953 401.969 96.2129C394.927 96.247 382.107 96.3091 367.52 93.0346C349.833 89.425 337.341 84.3726 332.119 82.2607ZM329.489 94.4838C326.049 93.2649 323.626 92.4066 323.273 92.5831C322.37 93.0346 337.721 99.807 345.397 102.065C352.621 103.871 357.587 103.419 357.587 102.968C357.587 102.915 357.611 102.857 357.638 102.793C357.842 102.301 358.192 101.456 349.009 100.259C342.684 99.1585 334.851 96.3833 329.489 94.4838ZM428.486 101.142C425.123 102.014 422.776 102.623 422.603 102.968C422.152 103.871 438.406 101.162 445.63 98.4525C452.854 96.195 456.917 93.0346 456.466 92.5831C456.399 92.5163 456.372 92.42 456.343 92.3189C456.178 91.7358 455.967 90.9928 447.887 94.8406C442.028 97.6307 433.927 99.7312 428.486 101.142ZM303.859 73.6201C296.635 70.4596 294.829 71.3626 295.28 72.7171C295.307 72.7974 295.329 72.8713 295.349 72.9398C295.361 72.9845 295.373 73.0269 295.384 73.0671C295.429 73.2358 295.465 73.3674 295.533 73.4793C295.774 73.8767 296.425 74.0256 299.383 74.7033L299.389 74.7047C300.228 74.8969 301.252 75.1314 302.504 75.4261C307.32 76.6301 309.929 77.6334 311.668 78.3023L311.668 78.3024C312.538 78.6368 313.19 78.8876 313.792 79.0381C315.598 79.4896 311.083 76.7806 303.859 73.6201ZM170.667 62.7841C165.249 63.2356 154.864 66.8476 155.767 66.8476C155.975 66.8476 156.588 66.7521 157.498 66.6105C160.544 66.1364 166.91 65.1454 172.473 65.4931C179.245 65.9446 179.697 65.0416 179.697 63.6871C179.697 62.3326 176.085 62.3326 170.667 62.7841ZM686.264 27.504C685.608 27.5308 684.6 27.6131 683.224 27.7254C678.277 28.1293 668.572 28.9217 653.319 28.9217C630.744 28.9217 591.915 39.7577 575.661 44.7242C559.407 49.6906 620.811 27.1157 650.159 26.2127C673.377 25.4983 683.313 27.0447 686.227 27.4982L686.264 27.504ZM1211.17 42.4613L1211.17 42.4613C1214.71 42.6129 1217.09 42.7148 1217.24 42.5637C1217.69 42.5637 1208.66 38.9517 1186.54 40.7577C1171.64 41.6607 1111.59 54.3026 1109.78 55.6571C1109.18 56.1086 1113.65 55.1555 1121.09 53.5669C1135.97 50.3896 1162.76 44.6707 1184.73 42.5637C1192.54 41.6628 1204.14 42.16 1211.17 42.4613ZM1026.71 79.5866C1025.81 80.0381 1006.39 84.1016 983.817 85.0046C966.996 85.6774 943.408 83.8437 933.223 83.0518C929.738 82.781 927.822 82.632 928.282 82.7471C929.637 83.1986 954.921 90.8741 988.331 88.1651C1021.74 85.4561 1027.61 79.1351 1026.71 79.5866ZM937.764 68.2991C932.346 67.8476 922.864 63.7841 923.316 63.3326C923.47 63.1784 924.52 63.393 926.141 63.7244C929.267 64.3631 934.516 65.4359 939.57 65.1386C946.342 64.6871 946.794 65.5901 946.794 66.9446C946.794 68.2991 943.182 68.7506 937.764 68.2991ZM907.513 75.9746C907.513 76.4261 887.647 70.5566 879.069 66.0416C870.49 61.9781 851.076 52.0452 851.527 52.0452C851.979 51.5936 870.49 59.2691 879.972 63.7841C884.781 66.0741 891.797 69.061 897.544 71.5077L897.545 71.5083L897.546 71.5085L897.547 71.5093C903.129 73.8857 907.513 75.7522 907.513 75.9746ZM691.498 3.18079L691.498 3.18083L691.5 3.18092L691.502 3.18097C695.038 3.33249 697.415 3.43433 697.566 3.2832C698.018 2.83171 688.988 -0.328781 666.864 1.4772C651.965 2.3802 591.915 15.0222 590.109 16.3767C589.507 16.8282 593.972 15.875 601.414 14.2864C616.296 11.1092 643.085 5.3902 665.058 3.2832C672.866 2.38228 684.469 2.87956 691.498 3.18079ZM189.178 36.6941C189.178 36.6941 194.596 38.0486 202.272 37.1456C203.827 36.9626 205.828 36.6868 208.12 36.371C217.136 35.1284 230.655 33.2652 239.295 33.9851C258.257 35.7911 272.705 46.1756 270.899 45.7241C270.502 45.7241 269.339 45.2431 267.561 44.5073C261.257 41.8992 247.213 36.0892 232.071 37.1456C229.425 37.2926 226.062 37.5831 222.48 37.8925C215.057 38.5337 206.693 39.2561 201.82 38.9516C194.596 38.5001 189.178 36.6941 189.178 36.6941ZM344.611 67.9357C342.544 67.2303 341.217 66.7772 340.882 66.9446C339.979 67.3961 347.203 71.9111 354.427 74.1686C361.651 75.9746 369.778 74.6201 369.778 74.1686C369.778 74.0994 369.783 74.0329 369.788 73.9687C369.85 73.1938 369.886 72.7449 360.296 71.9111C353.761 71.0587 348.12 69.1335 344.611 67.9359L344.611 67.9357ZM70.4338 64.2356C70.4338 64.6871 89.8483 64.2356 100.684 61.9781C111.52 59.7206 123.259 53.3996 123.259 52.9481C123.259 52.7266 120.324 53.5921 116.054 54.8513C111.622 56.1583 105.752 57.8894 100.233 59.2691C93.5042 61.0244 83.1742 62.4006 76.6118 63.2748C73.0461 63.7498 70.5928 64.0767 70.4338 64.2356Z" fill="#2D2D2D"/>
</svg>
