<svg width="1080" height="1080" viewBox="0 0 1080 1080" xmlns="http://www.w3.org/2000/svg"><rect width="1080" height="1080" fill="#2d2d2d"/><path d="M 0,1080 C 0,1080 0,216 0,216 C 48.615058910162006,185.42323269513992 97.23011782032401,154.84646539027983 151,136 C 204.769882179676,117.15353460972018 263.6945876288659,110.03737113402062 317,137 C 370.3054123711341,163.96262886597938 417.9915316642122,225.00405007363776 472,254 C 526.0084683357878,282.99594992636224 586.3392857142858,279.94642857142856 634,287 C 681.6607142857142,294.05357142857144 716.651325478645,311.210235640648 763,278 C 809.348674521355,244.78976435935198 867.055412371134,161.21262886597935 926,160 C 984.944587628866,158.78737113402065 1045.1270250368188,239.9392488954345 1071,263 C 1096.8729749631812,286.0607511045655 1088.4364874815906,251.03037555228275 1080,216 C 1080,216 1080,1080 1080,1080 Z" fill="#00aeef" opacity="0.12"/><path d="M 0,1080 C 0,1080 0,432 0,432 C 63.743556701030926,401.4580265095729 127.48711340206185,370.9160530191458 177,379 C 226.51288659793815,387.0839469808542 261.7951030927835,433.7938144329896 315,424 C 368.2048969072165,414.2061855670104 439.33247422680404,347.9086892488955 485,352 C 530.667525773196,356.0913107511045 550.875,430.5714285714285 598,462 C 645.125,493.4285714285715 719.1675257731961,481.8055964653903 770,481 C 820.8324742268039,480.1944035346097 848.4548969072163,490.2061855670103 906,482 C 963.5451030927837,473.7938144329897 1051.0128865979382,447.36966126656847 1085,436 C 1118.9871134020618,424.63033873343153 1099.493556701031,428.31516936671574 1080,432 C 1080,432 1080,1080 1080,1080 Z" fill="#00aeef" opacity="0.24"/><path d="M 0,1080 C 0,1080 0,648 0,648 C 64.73177466863034,677.354381443299 129.46354933726067,706.708762886598 180,687 C 230.53645066273933,667.291237113402 266.87757731958766,598.5193298969073 306,571 C 345.12242268041234,543.4806701030927 387.0261413843887,557.2139175257731 437,580 C 486.9738586156113,602.7860824742269 545.0178571428572,634.625 609,642 C 672.9821428571428,649.375 742.9024300441824,632.2860824742268 797,636 C 851.0975699558176,639.7139175257732 889.3724226804123,664.2306701030927 939,649 C 988.6275773195877,633.7693298969073 1049.607879234168,578.7912371134021 1075,572 C 1100.392120765832,565.2087628865979 1090.1960603829161,606.604381443299 1080,648 C 1080,648 1080,1080 1080,1080 Z" fill="#00aeef" opacity="0.36"/><path d="M 0,1080 C 0,1080 0,864 0,864 C 59.37168630338735,826.1115611192931 118.7433726067747,788.2231222385861 164,784 C 209.2566273932253,779.7768777614139 240.39819587628864,809.2190721649486 295,821 C 349.60180412371136,832.7809278350514 427.6638438880708,826.90058910162 481,830 C 534.3361561119292,833.09941089838 562.9464285714286,845.1785714285716 610,855 C 657.0535714285714,864.8214285714284 722.550441826215,872.3851251840942 777,871 C 831.449558173785,869.6148748159058 874.8518041237115,859.2809278350516 936,841 C 997.1481958762885,822.7190721649484 1076.0423416789395,796.4911634756995 1103,799 C 1129.9576583210605,801.5088365243005 1104.9788291605303,832.7544182621502 1080,864 C 1080,864 1080,1080 1080,1080 Z" fill="#00aeef" opacity="0.48"/></svg>