<svg width="56" height="53" viewBox="0 0 56 53" fill="none" xmlns="http://www.w3.org/2000/svg">
<g clip-path="url(#clip0_188_3271)">
<path d="M24.41 52.2347C24.41 52.2347 9.48449 49.4316 2.95643 37.4496C-3.57164 25.4676 2.48178 20.6707 4.32093 18.7763C6.16101 16.882 19.4908 6.79714 27.7136 3.07412C35.9365 -0.6489 48.7104 -0.772813 53.5362 10.4422C58.3619 21.6573 55.8623 35.2051 48.0933 43.5063C40.3234 51.8075 30.2586 53.2128 24.4109 52.2347H24.41Z" fill="#FF0000" fill-opacity="0.16"/>
</g>
<g clip-path="url(#clip1_188_3271)">
<path d="M46.2588 12.5729H38.9222L36.3372 9.9879C36.1297 9.78049 35.865 9.67078 35.5717 9.67078H26.171C25.5742 9.67078 25.0886 10.1564 25.0886 10.7533V12.5729H18.4913C16.7989 12.5729 15.422 13.9499 15.422 15.6422V32.9959C15.422 34.6883 16.799 36.0652 18.4913 36.0652H26.672V38.9792H23.3792C21.8915 38.9792 20.6812 39.9955 20.6812 41.2448V42.9636C20.6812 43.1086 20.7388 43.2477 20.8413 43.3503C20.9439 43.4528 21.083 43.5104 21.228 43.5104H43.5221C43.8084 43.5104 44.043 43.2902 44.0666 43.0099C46.5451 41.9981 48.2965 39.5617 48.2965 36.7237C48.2965 36.2696 48.2513 35.826 48.1659 35.3967C48.891 34.8176 49.3282 33.9299 49.3282 32.9959V15.6423C49.3282 13.9499 47.9512 12.5729 46.2588 12.5729ZM36.3404 12.5729V11.538L37.3752 12.5729H36.3404ZM26.1823 10.7645L35.2467 10.7647V13.271C35.2467 13.7202 35.6122 14.0857 36.0614 14.0857H38.5679V26.5872H26.1823V10.7645ZM38.579 27.6809C39.1759 27.6809 39.6615 27.1953 39.6615 26.5984V15.7761H46.1251V30.2599C45.9899 30.3012 45.867 30.3752 45.7673 30.4754L45.5202 30.7224H44.6761C43.8641 30.2919 42.9727 30.0321 42.0566 29.959V29.598H42.7615C43.2801 29.598 43.702 29.1761 43.702 28.6575V27.953C43.702 27.4344 43.2801 27.0126 42.7615 27.0126H40.2579C39.7393 27.0126 39.3175 27.4344 39.3175 27.953V28.6575C39.3175 29.1761 39.7393 29.598 40.2579 29.598H40.9628V29.959C40.0468 30.0321 39.1554 30.2919 38.3434 30.7224H37.4993L37.2523 30.4754C36.9147 30.1378 36.3654 30.1378 36.0278 30.4754L35.7808 30.7224H18.625V15.7761H25.0886V26.5984C25.0886 27.1953 25.5742 27.6809 26.171 27.6809H38.579ZM46.5233 32.1542C46.3821 31.9995 46.234 31.8513 46.0793 31.7102L46.3794 31.41L46.8234 31.854L46.5233 32.1542ZM40.4112 28.5043V28.1064H42.6082V28.5043H40.4112ZM36.4962 32.1542L36.196 31.854L36.64 31.41L36.9402 31.7102C36.7855 31.8513 36.6373 31.9995 36.4962 32.1542ZM16.5157 32.9959V15.6423C16.5157 14.5529 17.402 13.6667 18.4913 13.6667H25.0885V14.6823H18.428C17.9336 14.6823 17.5313 15.0846 17.5313 15.579V31.2693C17.5313 31.4143 17.5889 31.5534 17.6915 31.656C17.794 31.7585 17.9331 31.8161 18.0782 31.8161H35.01C34.9998 32.0503 35.083 32.2877 35.2614 32.4662L35.8214 33.0262C35.4308 33.6246 35.1376 34.2812 34.9527 34.9715H18.4913C17.402 34.9715 16.5157 34.0853 16.5157 32.9959ZM27.7657 36.0653H34.7551C34.7338 36.2841 34.7231 36.5039 34.723 36.7237C34.7224 37.492 34.8529 38.2548 35.1088 38.9792H27.7657V36.0653ZM21.7749 42.4167V41.2448C21.7749 40.6096 22.5096 40.0729 23.3792 40.0729H35.6088C36.1485 41.0191 36.9064 41.8226 37.8193 42.4166H21.7749V42.4167ZM41.5096 42.4167C38.3706 42.4167 35.8167 39.8629 35.8167 36.7237C35.8167 33.5846 38.3706 31.0308 41.5096 31.0308C44.6488 31.0308 47.2027 33.5846 47.2027 36.7237C47.2027 39.8629 44.6488 42.4167 41.5096 42.4167ZM48.2344 32.9959C48.2344 33.4384 48.0806 33.8647 47.8129 34.208C47.6472 33.7948 47.4413 33.399 47.198 33.0262L47.758 32.4662C48.0956 32.1286 48.0956 31.5792 47.758 31.2416L47.2188 30.7026V15.579C47.2188 15.0846 46.8165 14.6823 46.3221 14.6823H39.6615V13.7606C39.6615 13.7289 39.6597 13.6977 39.6571 13.6667H46.2588C47.3481 13.6667 48.2344 14.5529 48.2344 15.6422V32.9959H48.2344ZM41.5096 31.6509C38.7125 31.6509 36.4369 33.9265 36.4369 36.7237C36.4369 39.5208 38.7125 41.7965 41.5096 41.7965C44.3068 41.7965 46.5825 39.5208 46.5825 36.7237C46.5825 33.9265 44.3068 31.6509 41.5096 31.6509ZM41.5096 40.7027C39.3156 40.7027 37.5306 38.9177 37.5306 36.7237C37.5306 34.5296 39.3156 32.7447 41.5096 32.7447C43.7037 32.7447 45.4887 34.5296 45.4887 36.7237C45.4887 38.9177 43.7037 40.7027 41.5096 40.7027ZM42.0565 35.2519V33.9265C42.0565 33.7814 41.9989 33.6423 41.8963 33.5398C41.7938 33.4372 41.6547 33.3796 41.5096 33.3796C41.3646 33.3796 41.2255 33.4372 41.1229 33.5398C41.0204 33.6423 40.9628 33.7814 40.9628 33.9265V35.2519C40.3659 35.4745 39.9396 36.0502 39.9396 36.7237C39.9396 37.5894 40.6439 38.2938 41.5096 38.2938C42.3754 38.2938 43.0798 37.5894 43.0798 36.7237C43.0798 36.0502 42.6534 35.4745 42.0565 35.2519ZM41.5096 37.2001C41.247 37.2001 41.0333 36.9864 41.0333 36.7237C41.0333 36.461 41.247 36.2473 41.5096 36.2473C41.7723 36.2473 41.986 36.461 41.986 36.7237C41.986 36.9864 41.7723 37.2001 41.5096 37.2001ZM30.4484 13.0941C30.4967 13.1473 30.534 13.2095 30.5583 13.2771C30.5825 13.3447 30.5932 13.4164 30.5897 13.4881C30.5862 13.5599 30.5687 13.6302 30.538 13.6952C30.5073 13.7601 30.4641 13.8184 30.411 13.8666L28.6128 15.4984C28.5123 15.5899 28.3813 15.6405 28.2454 15.6403C28.1736 15.6404 28.1024 15.6263 28.036 15.5988C27.9697 15.5713 27.9094 15.531 27.8586 15.4802L27.1183 14.7398C27.0157 14.6373 26.9581 14.4982 26.9581 14.3531C26.9581 14.2081 27.0157 14.069 27.1183 13.9664C27.2208 13.8638 27.36 13.8062 27.505 13.8062C27.65 13.8062 27.7891 13.8638 27.8917 13.9664L28.2636 14.3384L29.6759 13.0567C29.7833 12.9593 29.925 12.9085 30.0699 12.9155C30.2148 12.9225 30.3509 12.9868 30.4484 13.0941ZM31.3095 13.4227C31.3095 13.2777 31.3671 13.1386 31.4696 13.036C31.5722 12.9335 31.7113 12.8759 31.8563 12.8759H33.7784C33.9234 12.8759 34.0625 12.9335 34.1651 13.036C34.2677 13.1386 34.3253 13.2777 34.3253 13.4227C34.3253 13.5678 34.2677 13.7069 34.1651 13.8094C34.0625 13.912 33.9234 13.9696 33.7784 13.9696H31.8563C31.7113 13.9696 31.5722 13.912 31.4696 13.8094C31.3671 13.7069 31.3095 13.5678 31.3095 13.4227ZM37.7919 15.0546C37.7919 15.1996 37.7343 15.3387 37.6317 15.4413C37.5292 15.5438 37.3901 15.6014 37.245 15.6014H31.8563C31.7113 15.6014 31.5722 15.5438 31.4696 15.4413C31.3671 15.3387 31.3095 15.1996 31.3095 15.0546C31.3095 14.9095 31.3671 14.7704 31.4696 14.6679C31.5722 14.5653 31.7113 14.5077 31.8563 14.5077H37.245C37.3901 14.5077 37.5292 14.5653 37.6317 14.6679C37.7343 14.7704 37.7919 14.9095 37.7919 15.0546ZM37.7919 19.4918C37.7919 19.6368 37.7343 19.7759 37.6317 19.8785C37.5292 19.981 37.3901 20.0386 37.245 20.0386H31.8563C31.7113 20.0386 31.5722 19.981 31.4696 19.8785C31.3671 19.7759 31.3095 19.6368 31.3095 19.4918C31.3095 19.3467 31.3671 19.2076 31.4696 19.1051C31.5722 19.0025 31.7113 18.9449 31.8563 18.9449H37.245C37.3901 18.9449 37.5292 19.0025 37.6317 19.1051C37.7343 19.2076 37.7919 19.3467 37.7919 19.4918ZM37.7919 17.86C37.7919 18.005 37.7343 18.1441 37.6317 18.2467C37.5292 18.3492 37.3901 18.4068 37.245 18.4068H31.8563C31.7113 18.4068 31.5722 18.3492 31.4696 18.2467C31.3671 18.1441 31.3095 18.005 31.3095 17.86C31.3095 17.7149 31.3671 17.5758 31.4696 17.4733C31.5722 17.3707 31.7113 17.3131 31.8563 17.3131H37.245C37.3901 17.3131 37.5292 17.3707 37.6317 17.4733C37.7343 17.5758 37.7919 17.7149 37.7919 17.86ZM37.7919 22.2972C37.7919 22.4422 37.7343 22.5813 37.6317 22.6839C37.5292 22.7864 37.3901 22.844 37.245 22.844H31.8563C31.7113 22.844 31.5722 22.7864 31.4696 22.6839C31.3671 22.5813 31.3095 22.4422 31.3095 22.2972C31.3095 22.1521 31.3671 22.013 31.4696 21.9105C31.5722 21.8079 31.7113 21.7503 31.8563 21.7503H37.245C37.3901 21.7503 37.5292 21.8079 37.6317 21.9105C37.7343 22.013 37.7919 22.1521 37.7919 22.2972ZM37.7919 23.929C37.7919 24.074 37.7343 24.2131 37.6317 24.3157C37.5292 24.4182 37.3901 24.4758 37.245 24.4758H31.8563C31.7113 24.4758 31.5722 24.4182 31.4696 24.3157C31.3671 24.2131 31.3095 24.074 31.3095 23.929C31.3095 23.7839 31.3671 23.6448 31.4696 23.5423C31.5722 23.4397 31.7113 23.3821 31.8563 23.3821H37.245C37.3901 23.3821 37.5292 23.4397 37.6317 23.5423C37.7343 23.6448 37.7919 23.7839 37.7919 23.929ZM30.4484 21.9297C30.4967 21.9828 30.534 22.045 30.5583 22.1126C30.5825 22.1802 30.5932 22.2519 30.5897 22.3237C30.5862 22.3954 30.5687 22.4657 30.538 22.5307C30.5073 22.5956 30.4641 22.6539 30.411 22.7021L28.6128 24.3339C28.5123 24.4254 28.3813 24.476 28.2454 24.4758C28.1736 24.4759 28.1024 24.4618 28.036 24.4343C27.9697 24.4069 27.9094 24.3665 27.8586 24.3157L27.1183 23.5753C27.0675 23.5246 27.0272 23.4643 26.9997 23.3979C26.9723 23.3316 26.9581 23.2605 26.9581 23.1886C26.9581 23.1168 26.9723 23.0457 26.9997 22.9794C27.0272 22.913 27.0675 22.8527 27.1183 22.8019C27.1691 22.7511 27.2294 22.7109 27.2957 22.6834C27.3621 22.6559 27.4332 22.6417 27.505 22.6417C27.5768 22.6417 27.6479 22.6559 27.7143 22.6834C27.7806 22.7109 27.8409 22.7511 27.8917 22.8019L28.2636 23.1739L29.6759 21.8922C29.7291 21.8439 29.7912 21.8066 29.8588 21.7824C29.9264 21.7581 29.9982 21.7474 30.0699 21.7509C30.1416 21.7544 30.212 21.772 30.2769 21.8026C30.3419 21.8333 30.4001 21.8765 30.4484 21.9297ZM27.3856 19.2911L28.0008 18.6759L27.3856 18.0607C27.283 17.9582 27.2254 17.8191 27.2254 17.674C27.2254 17.529 27.283 17.3899 27.3856 17.2873C27.4881 17.1847 27.6272 17.1271 27.7723 17.1271C27.9173 17.1271 28.0564 17.1847 28.159 17.2873L28.7742 17.9025L29.3893 17.2873C29.4401 17.2365 29.5004 17.1962 29.5667 17.1688C29.6331 17.1413 29.7042 17.1271 29.776 17.1271C29.8478 17.1271 29.919 17.1413 29.9853 17.1688C30.0517 17.1962 30.112 17.2365 30.1627 17.2873C30.2135 17.3381 30.2538 17.3984 30.2813 17.4647C30.3088 17.5311 30.3229 17.6022 30.3229 17.674C30.3229 17.7458 30.3088 17.817 30.2813 17.8833C30.2538 17.9497 30.2135 18.0099 30.1627 18.0607L29.5475 18.6759L30.1627 19.2911C30.2653 19.3936 30.3229 19.5327 30.3229 19.6778C30.3229 19.8228 30.2653 19.9619 30.1627 20.0645C30.0602 20.167 29.9211 20.2247 29.776 20.2247C29.631 20.2247 29.4919 20.167 29.3893 20.0645L28.7742 19.4492L28.159 20.0645C28.0564 20.167 27.9173 20.2247 27.7723 20.2247C27.6272 20.2247 27.4881 20.167 27.3856 20.0645C27.283 19.9619 27.2254 19.8228 27.2254 19.6778C27.2254 19.5327 27.283 19.3936 27.3856 19.2911Z" fill="#F24C64"/>
</g>
<defs>
<clipPath id="clip0_188_3271">
<rect width="56" height="51.6923" fill="white" transform="translate(0 0.811768)"/>
</clipPath>
<clipPath id="clip1_188_3271">
<rect width="35" height="35" fill="white" transform="translate(14.875 9.09064)"/>
</clipPath>
</defs>
</svg>
