<svg width="56" height="53" viewBox="0 0 56 53" fill="none" xmlns="http://www.w3.org/2000/svg">
<g clip-path="url(#clip0_188_3280)">
<path d="M24.41 51.927C24.41 51.927 9.48449 49.1239 2.95643 37.1419C-3.57164 25.1599 2.48178 20.363 4.32093 18.4686C6.16101 16.5743 19.4908 6.48946 27.7136 2.76644C35.9365 -0.956578 48.7104 -1.08049 53.5362 10.1346C58.3619 21.3496 55.8623 34.8974 48.0933 43.1986C40.3234 51.4999 30.2586 52.9051 24.4109 51.927H24.41Z" fill="#97E2C3" fill-opacity="0.2"/>
</g>
<g clip-path="url(#clip1_188_3280)">
<path d="M49.7536 29.787C49.5936 29.6271 49.3767 29.5372 49.1505 29.5372C48.9243 29.5372 48.7074 29.6271 48.5474 29.787L40.9577 37.3767C40.9257 37.4088 40.8876 37.4342 40.8457 37.4516C40.8038 37.4689 40.7589 37.4778 40.7135 37.4778C40.6682 37.4778 40.6233 37.4689 40.5814 37.4516C40.5395 37.4342 40.5014 37.4088 40.4693 37.3767L38.0092 34.9166C37.8488 34.7587 37.6325 34.6706 37.4075 34.6715C37.1824 34.6724 36.9668 34.7622 36.8077 34.9213C36.6486 35.0805 36.5588 35.2961 36.5579 35.5211C36.557 35.7462 36.6451 35.9624 36.8029 36.1228L40.4693 39.7892C40.5014 39.8213 40.5395 39.8467 40.5814 39.8641C40.6233 39.8815 40.6682 39.8904 40.7135 39.8904C40.7589 39.8904 40.8038 39.8815 40.8457 39.8641C40.8876 39.8467 40.9257 39.8213 40.9577 39.7892L49.7536 30.9933C49.8328 30.9141 49.8956 30.8201 49.9385 30.7166C49.9814 30.6131 50.0035 30.5022 50.0035 30.3901C50.0035 30.2781 49.9814 30.1672 49.9385 30.0637C49.8956 29.9602 49.8328 29.8662 49.7536 29.787Z" fill="#97E2C3"/>
<path d="M48.3082 35.3611C48.082 35.3611 47.865 35.451 47.7051 35.611C47.5451 35.7709 47.4553 35.9879 47.4553 36.2141C47.4553 37.4669 47.0838 38.6915 46.3878 39.7331C45.6918 40.7748 44.7025 41.5866 43.5451 42.066C42.3877 42.5455 41.1141 42.6709 39.8854 42.4265C38.6567 42.1821 37.5281 41.5788 36.6423 40.693C35.7564 39.8071 35.1531 38.6785 34.9087 37.4498C34.6643 36.2211 34.7898 34.9475 35.2692 33.7901C35.7486 32.6327 36.5605 31.6435 37.6021 30.9475C38.6437 30.2515 39.8684 29.88 41.1211 29.88C42.107 29.8769 43.0797 30.1064 43.9602 30.5499C44.1624 30.6514 44.3966 30.6685 44.6113 30.5973C44.8261 30.5262 45.0037 30.3726 45.1053 30.1705C45.2068 29.9684 45.2239 29.7341 45.1527 29.5194C45.0816 29.3047 44.928 29.127 44.7259 29.0255C43.608 28.462 42.3729 28.1703 41.1211 28.1739C39.5309 28.1739 37.9765 28.6454 36.6543 29.5288C35.3321 30.4123 34.3016 31.6679 33.6931 33.1371C33.0846 34.6062 32.9253 36.2227 33.2355 37.7823C33.5457 39.3419 34.3115 40.7745 35.4359 41.899C36.5603 43.0234 37.9928 43.7891 39.5524 44.0994C41.112 44.4096 42.7286 44.2504 44.1977 43.6419C45.6668 43.0334 46.9225 42.003 47.806 40.6808C48.6895 39.3587 49.1611 37.8042 49.1611 36.2141C49.1611 35.9879 49.0712 35.7709 48.9113 35.611C48.7513 35.451 48.5344 35.3611 48.3082 35.3611Z" fill="#97E2C3"/>
<path d="M42.8894 23.0529H41.4539C41.2169 23.0529 40.9897 23.147 40.8222 23.3146C40.6546 23.4821 40.5605 23.7094 40.5605 23.9463C40.5605 24.1832 40.6546 24.4105 40.8222 24.578C40.9897 24.7456 41.2169 24.8397 41.4539 24.8397H43.7871C44.0335 24.8304 44.2669 24.7271 44.4395 24.5511C44.612 24.3751 44.7106 24.1396 44.715 23.8932C44.6707 19.9955 43.0912 16.2724 40.3193 13.5318C37.5474 10.7912 33.8067 9.25416 29.9087 9.25409C21.7438 9.25409 15.1011 15.8967 15.1011 24.0616C15.1011 32.2265 21.7438 38.8691 29.9087 38.8691C30.1002 38.869 30.2866 38.8074 30.4405 38.6933C30.5943 38.5792 30.7074 38.4188 30.7632 38.2355C30.7899 38.1592 30.803 38.0787 30.8019 37.9978V35.4916C30.7998 35.2561 30.7048 35.0308 30.5374 34.8649C30.3701 34.6991 30.144 34.606 29.9084 34.606C29.6728 34.606 29.4468 34.6991 29.2794 34.8649C29.1121 35.0308 29.0171 35.2561 29.015 35.4916V37.0511C22.5077 36.6079 17.2982 31.3624 16.9116 24.84H18.3632C18.6001 24.84 18.8274 24.7459 18.9949 24.5784C19.1624 24.4108 19.2566 24.1836 19.2566 23.9466C19.2566 23.7097 19.1624 23.4825 18.9949 23.3149C18.8274 23.1474 18.6001 23.0532 18.3632 23.0532H16.9267C17.4206 16.6374 22.5844 11.5099 29.0152 11.0724V12.4009C29.0173 12.6365 29.1123 12.8617 29.2796 13.0276C29.447 13.1935 29.673 13.2865 29.9086 13.2865C30.1442 13.2865 30.3703 13.1935 30.5376 13.0276C30.705 12.8617 30.8 12.6365 30.8021 12.4009V11.0724C37.2075 11.5129 42.3933 16.65 42.8894 23.0529Z" fill="#97E2C3"/>
<path d="M29.9087 17.9997C29.6718 17.9997 29.4445 18.0938 29.2769 18.2614C29.1094 18.4289 29.0153 18.6562 29.0153 18.8932V23.5453L22.9739 27.0275C22.8714 27.0857 22.7814 27.1635 22.7091 27.2566C22.6368 27.3496 22.5836 27.4561 22.5527 27.5698C22.5217 27.6835 22.5135 27.8022 22.5286 27.9191C22.5437 28.036 22.5818 28.1487 22.6406 28.2508C22.6995 28.3529 22.7779 28.4423 22.8715 28.514C22.9651 28.5856 23.0719 28.6381 23.1858 28.6683C23.2997 28.6985 23.4185 28.7058 23.5352 28.6899C23.652 28.674 23.7645 28.6352 23.8662 28.5756L30.3548 24.836C30.3712 24.8265 30.3856 24.8174 30.399 24.8086C30.5229 24.7275 30.6246 24.6167 30.695 24.4864C30.7655 24.3561 30.8023 24.2103 30.8023 24.0622V18.8932C30.8023 18.7758 30.7792 18.6596 30.7343 18.5512C30.6894 18.4428 30.6236 18.3443 30.5406 18.2613C30.4576 18.1784 30.3591 18.1126 30.2507 18.0677C30.1423 18.0228 30.0261 17.9997 29.9087 17.9997Z" fill="#97E2C3"/>
</g>
<defs>
<clipPath id="clip0_188_3280">
<rect width="56" height="51.6923" fill="white" transform="translate(0 0.504089)"/>
</clipPath>
<clipPath id="clip1_188_3280">
<rect width="35" height="35" fill="white" transform="translate(15.0522 9.25409)"/>
</clipPath>
</defs>
</svg>
