<svg width="56" height="52" viewBox="0 0 56 52" fill="none" xmlns="http://www.w3.org/2000/svg">
<g clip-path="url(#clip0_188_3292)">
<path d="M24.41 51.6193C24.41 51.6193 9.48449 48.8162 2.95643 36.8343C-3.57164 24.8523 2.48178 20.0553 4.32093 18.161C6.16101 16.2666 19.4908 6.18178 27.7136 2.45876C35.9365 -1.26426 48.7104 -1.38817 53.5362 9.82688C58.3619 21.0419 55.8623 34.5897 48.0933 42.891C40.3234 51.1922 30.2586 52.5975 24.4109 51.6193H24.41Z" fill="#6F57CB" fill-opacity="0.2"/>
</g>
<g clip-path="url(#clip1_188_3292)">
<path d="M44.9533 41.1214C43.394 33.2915 43.4614 33.6248 43.4537 33.5926C43.2493 32.6029 42.6744 31.7812 41.7423 31.2664C41.3064 31.025 41.0551 30.9874 40.8353 30.9156L37.0044 29.585L35.7276 28.7093V27.7161C37.5947 26.6069 38.7833 24.6968 39.0006 22.6297C40.5608 22.7021 41.6482 21.2109 40.994 19.9053V15.7259C40.994 12.7034 39.3503 11.6519 38.848 11.4013C36.3907 8.46782 31.8021 7.71546 28.3236 9.50039L28.3169 9.50374C28.2572 9.53881 27.5403 9.87048 26.6575 10.6086C26.5547 10.6976 26.4914 10.8237 26.4815 10.9594C26.4717 11.095 26.5161 11.2289 26.6051 11.3318C26.694 11.4347 26.8202 11.498 26.9558 11.5078C27.0914 11.5176 27.2254 11.4732 27.3283 11.3842C30.735 8.52367 35.7915 9.25874 38.1292 12.1411C38.1867 12.212 38.2568 12.2643 38.3423 12.2963C38.4087 12.3229 39.9687 12.9795 39.9687 15.7259V18.9616C39.6843 18.8411 39.3724 18.7794 39.04 18.7887V17.1118C39.04 16.6864 38.7196 16.3348 38.2947 16.2938C37.4331 16.2106 36.9503 15.6492 36.697 15.1931C36.3799 14.6221 35.623 14.4853 35.1267 14.9094C32.8407 16.8634 30.2086 16.9627 28.4031 16.7023C27.0393 16.5054 25.7708 17.4344 25.5501 18.7894C25.2208 18.7746 24.8923 18.8334 24.5886 18.9615C24.5906 17.1964 24.387 15.2759 25.8306 13.0752C25.8674 13.0189 25.8928 12.9558 25.9052 12.8896C25.9177 12.8235 25.917 12.7555 25.9031 12.6896C25.8893 12.6237 25.8627 12.5612 25.8247 12.5056C25.7867 12.45 25.7381 12.4024 25.6818 12.3656C25.6254 12.3287 25.5623 12.3034 25.4962 12.2909C25.43 12.2784 25.362 12.2791 25.2961 12.2929C25.2302 12.3067 25.1677 12.3334 25.1121 12.3714C25.0565 12.4094 25.0089 12.458 24.9721 12.5143C23.0075 15.5248 23.7104 18.2222 23.5632 19.9053C22.9094 21.2103 23.9953 22.7021 25.5565 22.6296C25.8114 25.0641 27.311 26.4646 27.3466 26.5255L27.3467 26.5256C27.6129 26.7808 28.0909 27.3139 29.0227 27.8274V28.7091L27.7461 29.5847C22.7498 31.3203 23.2569 31.1097 22.851 31.3577C22.0838 31.8303 21.552 32.553 21.3304 33.4429C21.2867 33.6188 21.3593 33.2865 19.797 41.1212C19.7656 41.2794 19.7491 41.5879 19.7773 41.8496C19.8931 42.9255 20.6561 43.5425 21.8707 43.5425H35.9585C36.2417 43.5425 36.4712 43.313 36.4712 43.0298C36.4712 42.7466 36.2417 42.5171 35.9585 42.5171H25.4761V37.8196C25.4761 37.5364 25.2466 37.3069 24.9634 37.3069C24.6803 37.3069 24.4507 37.5364 24.4507 37.8196V42.5172H21.8706C21.0668 42.5172 20.6893 42.1723 20.8056 41.3067C22.2086 34.4514 22.2116 33.8982 22.441 33.3365C22.481 33.2805 22.7021 32.4895 23.786 32.0293C23.8981 31.9834 23.8282 32.0142 24.2136 31.8967C24.2374 31.8899 24.1199 31.9298 25.9611 31.2905L27.1892 33.5576C27.2213 33.6168 27.2647 33.6691 27.317 33.7115C27.3692 33.754 27.4294 33.7857 27.4939 33.8049C27.5585 33.8241 27.6261 33.8303 27.6931 33.8233C27.7601 33.8164 27.825 33.7962 27.8842 33.7642C27.9434 33.7321 27.9957 33.6887 28.0381 33.6364C28.0806 33.5841 28.1123 33.524 28.1315 33.4594C28.1506 33.3949 28.1569 33.3272 28.1499 33.2603C28.143 33.1933 28.1229 33.1284 28.0908 33.0692L26.9426 30.9495L27.7278 30.6768L31.8219 38.2342C32.0468 38.6507 32.6192 38.6715 32.8829 38.3078C32.9307 38.242 32.6577 38.732 37.016 30.6745L37.801 30.9471L33.6506 38.6245C33.1034 39.6366 31.6488 39.6366 31.101 38.6256L29.2305 35.1726C29.1984 35.1134 29.155 35.0611 29.1028 35.0187C29.0505 34.9762 28.9903 34.9445 28.9258 34.9253C28.8612 34.9061 28.7936 34.8999 28.7266 34.9068C28.6596 34.9138 28.5947 34.934 28.5355 34.9661C28.4763 34.9981 28.424 35.0415 28.3816 35.0938C28.3391 35.1461 28.3074 35.2062 28.2882 35.2708C28.2691 35.3353 28.2628 35.403 28.2698 35.47C28.2767 35.5369 28.2968 35.6019 28.3289 35.6611L30.1995 39.1141C31.1351 40.8409 33.6189 40.8393 34.5526 39.1122L38.7823 31.2881C40.6195 31.9259 40.5117 31.8895 40.5355 31.8963C40.897 32.0064 40.8568 31.9852 40.9632 32.0288C41.3552 32.1958 41.5892 32.3885 41.5824 32.3834C41.9844 32.7077 42.2616 33.0823 42.4097 33.6339C42.4339 33.7214 43.956 41.2677 43.9622 41.5223C43.9774 42.166 43.6995 42.5172 42.88 42.5172H40.2996V37.8196C40.2996 37.5364 40.0701 37.3069 39.7869 37.3069C39.5037 37.3069 39.2742 37.5364 39.2742 37.8196V42.5172H38.3508C38.0676 42.5172 37.8381 42.7466 37.8381 43.0298C37.8381 43.3131 38.0676 43.5425 38.3508 43.5425H42.8798C44.0944 43.5425 44.8573 42.9255 44.973 41.8502C45.001 41.5937 44.9846 41.2786 44.9533 41.1214ZM39.04 19.8144C39.6312 19.7832 40.1604 20.1815 40.1604 20.7097C40.1604 21.2433 39.6255 21.6361 39.04 21.6051V19.8144ZM25.5173 21.6051C24.9261 21.6364 24.3969 21.2381 24.3969 20.7098C24.3969 20.1763 24.9318 19.7835 25.5173 19.8144V21.6051ZM28.2566 17.7172C30.2719 18.008 33.2152 17.8923 35.7928 15.6888L35.8004 15.6908C36.2956 16.5825 37.077 17.1455 38.0146 17.2915V19.1071L37.4296 19.4523C37.1887 19.1052 36.7878 18.877 36.3343 18.877H33.9882C33.4348 18.877 32.9594 19.2162 32.7581 19.6973H31.7992C31.5978 19.2162 31.1224 18.877 30.569 18.877H28.2229C27.7693 18.877 27.3684 19.1052 27.1276 19.4523L26.5453 19.1086C26.5957 18.2321 27.388 17.5915 28.2566 17.7172ZM36.6419 20.21V21.231C36.6419 21.6758 36.2801 22.0375 35.8354 22.0375H34.487C34.0423 22.0375 33.6805 21.6757 33.6805 21.231V20.21H33.6805C33.6805 20.0433 33.8214 19.9024 33.9882 19.9024H36.3343C36.501 19.9024 36.6419 20.0433 36.6419 20.21ZM30.8766 20.21V21.231C30.8766 21.6758 30.5149 22.0375 30.0701 22.0375H28.7218C28.277 22.0375 27.9153 21.6757 27.9153 21.231V20.21C27.9153 20.0433 28.0561 19.9024 28.2229 19.9024H30.569C30.7358 19.9024 30.8766 20.0433 30.8766 20.21ZM27.9253 25.6356C26.266 23.7015 26.5859 21.8236 26.5427 20.2977L26.89 20.5027V21.231C26.89 22.2411 27.7118 23.0629 28.7218 23.0629H30.0702C31.0803 23.0629 31.902 22.2412 31.902 21.231V20.7227H32.6554V21.231C32.6554 22.2411 33.4772 23.0629 34.4872 23.0629H35.8356C36.8457 23.0629 37.6675 22.2412 37.6675 21.231V20.5027L38.0149 20.2977V21.9008C38.0149 24.9502 35.6014 27.5997 32.2788 27.6362L32.2097 27.6357C31.3234 27.6267 30.6424 27.3996 30.7113 27.4189C29.7052 27.1399 28.7458 26.5639 27.9253 25.6356ZM32.3752 31.3713L30.0481 28.7819V28.2846C31.0793 28.6425 32.1813 28.7476 33.2615 28.5911C33.5498 28.5492 33.8602 28.4805 34.0417 28.4292C34.0849 28.4152 34.3324 28.356 34.7023 28.2137V28.7819L32.3752 31.3713ZM32.9527 33.1984L32.7261 33.6649H32.0244L31.7978 33.1984L32.3752 32.7743L32.9527 33.1984ZM31.0241 34.6091L30.6976 34.0064L30.9577 33.8155L31.152 34.2157L31.0241 34.6091ZM30.2082 33.0938L28.6505 30.2124L29.4561 29.6568L31.6157 32.06C31.1465 32.4046 30.6773 32.7492 30.2082 33.0938ZM32.3751 37.1028L31.6979 35.8528L32.0759 34.6902H32.6748L33.0521 35.8508C32.8375 36.2475 32.6382 36.6161 32.3751 37.1028ZM33.7252 34.6053L33.5985 34.2155L33.7929 33.8154L34.0501 34.0043L33.7252 34.6053ZM34.5424 33.0938C34.0732 32.7493 33.6041 32.4047 33.1349 32.06L35.2946 29.6568L36.1002 30.2124C35.5828 31.1692 34.8781 32.4726 34.5424 33.0938Z" fill="#6F57CB"/>
</g>
<defs>
<clipPath id="clip0_188_3292">
<rect width="56" height="51.6923" fill="white" transform="translate(0 0.196411)"/>
</clipPath>
<clipPath id="clip1_188_3292">
<rect width="35" height="35" fill="white" transform="translate(14.875 8.54254)"/>
</clipPath>
</defs>
</svg>
